<svg xmlns="http://www.w3.org/2000/svg" width="63" height="52" viewBox="0 0 63 52">
  <path fill="#9CBD2F" fill-rule="evenodd" d="M32,30.0636419 L32,30 L36.910528,30 C32.4116753,27.330569 29.4351412,25.0801772 27.9809257,23.2488246 C24.8793864,19.4971067 23.3286167,14.3743797 23.3286167,7.88064354 C28.6038272,7.56092027 32.9726333,8.0065206 36.4350351,9.21744455 C41.6286378,11.0338305 44.8416314,12.8866785 47.8102526,17.0383677 C51.3194143,21.9460161 53.2967041,26.2665602 53.7421217,30 L58.0667831,30 C57.9973793,22.6867182 57.6417849,15.3533849 57,8 L63,8 L63,56 L57,56 C57.6476526,49.0204199 58.0038576,42.0204199 58.0686149,35 L53.4955635,35 C53.3046239,38.9498121 51.2999813,43.5947429 47.4816358,48.9347923 C44.5130147,53.0864815 41.3000211,54.9393295 36.1064184,56.7557154 C32.6440165,57.9666394 28.2752104,58.4122397 23,58.0925165 C23,51.5987803 24.5507697,46.4760533 27.652309,42.7243354 C29.2799911,40.6745291 32.8148337,38.0997507 38.2568369,35 L32.8974793,35 C31.0608848,37.2925737 28.5694335,38.9226397 26.2846037,39.6962394 C23.3447147,40.6916296 16.2536327,41.1465691 10.8205057,39.6962394 C7.19842105,38.7293528 3.7454097,36.453728 0.461471663,32.8693649 C2.95589046,29.5764738 6.7335439,27.2655229 11.794432,25.9365123 C16.8553201,24.6075017 21.9983931,24.9591973 27.2236511,26.9915991 C29.2322923,28.0678231 30.8244086,29.0918374 32,30.0636419 Z M31.6203686,11.7804147 C32.1755498,16.2900323 33.0563665,19.6579383 34.2628188,21.8841325 C35.9034604,24.9115102 38.5085446,26.8207011 41.7821153,28.3953507 C43.9644957,29.4451171 45.925886,29.9700003 47.6662861,29.9700003 C47.953105,25.5205259 47.0304913,21.7867919 44.8984451,18.7687984 C43.4194463,16.519129 42.5362277,15.4287106 38.631228,13.4143827 C36.0278949,12.0714974 33.6909417,11.5268414 31.6203686,11.7804147 Z M47.7173008,35.3849076 C45.6467276,35.1313456 43.3097745,35.6759774 40.7064414,37.0188031 C36.8014417,39.0330417 35.918223,40.1234117 34.4392242,42.3729813 C32.3071781,45.390841 31.3845644,49.1244093 31.6713833,53.5736863 C33.4117834,53.5736863 35.3731737,53.0488264 37.5555541,51.9991066 C40.8291248,50.4245269 43.434209,48.5154207 45.0748506,45.4881772 C46.2813028,43.2620818 47.1621196,39.8943253 47.7173008,35.3849076 Z M9.24894285,30.8980362 C11.750408,33.0121528 13.7898126,34.433643 15.3671565,35.1625068 C17.7331723,36.2558025 21.951748,36.6585472 23.3341636,36.4571749 C24.7165792,36.2558025 28.2686767,34.332039 28.2686767,32.2887982 C28.2686767,32.2829338 25.7276884,29.9161473 23.3341636,28.9994169 C20.9406389,28.0826864 19.991767,27.9564133 17.0859639,28.0057703 C14.0671,28.0570477 11.4547597,29.0211363 9.24894285,30.8980362 Z" transform="translate(0 -7)"/>
</svg>
