<svg xmlns="http://www.w3.org/2000/svg" width="55" height="64" viewBox="0 0 55 64">
  <path fill="#017DC3" fill-rule="evenodd" d="M22.0346916,62.5959645 C24.031141,56.9453056 24.031141,45.8339799 22.0346916,29.2619873 C14.0407287,27.6110547 8.19278918,22.3623289 4.49087309,13.5158099 C4.46978131,13.4654065 3.14559815,10.2973461 5.08063352,8.26805603 C7.0156689,6.23876594 10.295304,6.39412348 11.3002936,9.05091489 C14.4524445,17.3839438 25.721373,23.5809299 32.9654655,23.5809299 C39.9618786,23.5809299 47.9819143,15.0913568 51.5831618,8.71096215 C52.6018153,5.66672187 56.5194833,5.16359906 58.0652369,7.23563525 C59.6109904,9.30767144 58.9505484,11.723446 57.692117,14.2104949 C54.2936331,20.9269476 49.0004432,25.9441117 41.8125472,29.2619873 C41.8125472,35.7268611 41.2387658,41.6309432 40.0912029,46.9742335 C37.9804136,56.8025058 34.2868422,60.2621271 32.9654655,61.2972762 C31.6440889,62.3324253 26.3869529,64.5070651 22.0346916,62.5959645 Z M31.5692308,19.6923077 C26.1313502,19.6923077 21.7230769,15.2840345 21.7230769,9.84615385 C21.7230769,4.40827323 26.1313502,7.10542736e-15 31.5692308,7.10542736e-15 C37.0071114,7.10542736e-15 41.4153846,4.40827323 41.4153846,9.84615385 C41.4153846,15.2840345 37.0071114,19.6923077 31.5692308,19.6923077 Z" transform="translate(-4)"/>
</svg>
