<svg xmlns="http://www.w3.org/2000/svg" width="64" height="64" viewBox="0 0 64 64">
  <defs>
    <linearGradient id="pluralsight-a" x1="49.999%" x2="49.999%" y1="1.578%" y2="100.443%">
      <stop offset="0%" stop-color="#DF5430"/>
      <stop offset="100%" stop-color="#D6177D"/>
    </linearGradient>
  </defs>
  <g fill="none" fill-rule="evenodd">
    <path fill="url(#pluralsight-a)" d="M64,31.9995591 C64,49.6729447 49.6729447,64 31.9995591,64 C14.3270553,64 0,49.6729447 0,31.9995591 C0,14.3270553 14.3270553,0 31.9995591,0 C49.6729447,0 64,14.3270553 64,31.9995591"/>
    <path fill="#FFFFFE" d="M23,15 L23,48 L52,31.4995625 L23,15 Z M25.775519,19.7371603 L46.4480742,31.4995625 L25.775519,43.2619647 L25.775519,19.7371603 Z"/>
    <path fill="#FFFFFE" d="M17,18 L17,44 L39,30.999559 L17,18 Z M19.693772,22.7756182 L33.6124559,30.999559 L19.693772,39.2234999 L19.693772,22.7756182 Z"/>
  </g>
</svg>
