<svg xmlns="http://www.w3.org/2000/svg" width="64" height="64" viewBox="0 0 32 32"><path fill="#FFFFFE" d="M16.6.2H.4C.2.2 0 .3 0 .6v26.8c0 .7.4.8.9.4l2.5-2.4 3.2-3.1c.1-.1.3-.1.4-.1h9.8c5.9 0 10.5-5.1 10.5-10.9C27.2 5.3 22.5.2 16.6.2zM5.5 5.8c0-.1.1-.2.2-.2h12.9c.1 0 .2.1.2.2v1.6c0 .1-.1.2-.2.2H5.8c-.1 0-.2-.1-.2-.2V5.8zm13.4 10.5c0 .1-.1.2-.2.2H5.8c-.1 0-.2-.1-.2-.2v-1.6c0-.1.1-.2.2-.2h12.9c.1 0 .2.1.2.2v1.6zm2.7-4.4c0 .1-.1.2-.2.2H5.8c-.1 0-.2-.1-.2-.2v-1.6c0-.1.1-.2.2-.2h15.6c.1 0 .2.1.2.2v1.6z"/></svg>