<svg xmlns="http://www.w3.org/2000/svg" width="56" height="56" viewBox="0 0 56 56">
  <path fill="#F58026" fill-rule="evenodd" d="M36.8484848,30.5454545 C36.8484848,33.357086 34.5692072,35.6363636 31.7575758,35.6363636 C28.9459443,35.6363636 26.6666667,33.357086 26.6666667,30.5454545 C26.6666667,27.7338231 28.9459443,25.4545455 31.7575758,25.4545455 C34.5692072,25.4545455 36.8484848,27.7338231 36.8484848,30.5454545 Z M49.443104,54.5401684 C48.7475478,53.666049 48.4639147,52.534951 48.6649585,51.4370074 C48.676472,51.3014355 48.7353276,51.1742007 48.8312565,51.0775025 C55.3421049,45.2304312 58.4018493,36.4660335 56.9408016,27.8483462 C55.4797539,19.2306589 49.7010819,11.9580239 41.6250115,8.57295734 L41.2646992,8.43468621 C31.2889022,4.62785826 19.9931899,7.36841529 12.8831805,15.3205885 C12.7912383,15.4232283 12.6608004,15.4832956 12.5228682,15.4865138 C8.03282327,15.6800934 6.97960284,11.5596137 8.94746205,9.45789257 C15.0057187,3.38001416 23.2499608,-0.0258131883 31.8411481,0.000147329189 C44.8606626,0.0863119065 56.5615347,7.94636638 61.5395008,19.9499996 C66.517467,31.9536328 63.8037322,45.7647384 54.6516851,55.0044026 C54.0035447,55.6464213 53.1259421,56.0046362 52.2126484,55.9999547 C51.1784632,55.946378 50.1386603,55.4142878 49.443104,54.5401684 Z" transform="translate(-8)"/>
</svg>
