<svg xmlns="http://www.w3.org/2000/svg" width="64" height="64" viewBox="0 0 64 64">
  <g fill="none" fill-rule="evenodd">
    <path fill="#49748A" d="M32,0 C14.3,0 0,14.3 0,32 C0,49.7 14.3,64 32,64 C49.7,64 64,49.7 64,32 C64,14.3 49.7,0 32,0 Z"/>
    <path fill="#FFF" d="M33.2,51.3 C30.3,51.3 27.9,51 25.1,51 C23.1,51 20.8,51.2 19.6,51.3 C19.9,46.5 20,42.2 20,36.1 L20,28.6 C20,22.5 19.9,18.2 19.6,13.4 C20.8,13.5 22.3,13.7 24.1,13.7 C27.2,13.7 30.9,13.4 34,13.4 C40.6,13.4 45.1,15.9 45.1,21.9 C45.1,27.9 39.6,30.4 36.2,31 L36.2,31.1 C39.5,31.3 46.1,33.7 46.1,40.3 C46,48.1 39.7,51.3 33.2,51.3 Z M30.7,29.9 C33.8,29.9 37,27.6 37,22.9 C37,19.4 35.5,16.5 31.1,16.5 C29.5,16.5 29.1,16.6 28.4,16.7 C28.3,19.4 28.2,22.5 28.2,24.3 C28.2,26.3 28.3,28 28.3,29.9 L30.7,29.9 Z M30.6,33.1 C29.6,33.1 28.9,33.2 28.2,33.2 C28.2,34.7 28.1,36.3 28.1,38.5 C28.1,42 28.2,46.2 28.2,48.1 C29.2,48.2 30,48.2 31.2,48.2 C34.4,48.2 37.2,45.5 37.2,40.7 C37.3,35.6 35,33.1 30.6,33.1 Z"/>
  </g>
</svg>
