<svg xmlns="http://www.w3.org/2000/svg" width="64" height="57" viewBox="0 0 64 57">
  <g fill="none" fill-rule="evenodd">
    <polygon fill="#FF3939" points="32 0 64 57 0 57" transform="matrix(1 0 0 -1 0 57)"/>
    <path fill="#FFF" d="M32.345307,37.7240421 C32.345307,38.8991782 32.0108377,39.7992343 31.341889,40.4242374 C30.6729404,41.0492405 29.7069669,41.3617374 28.4439398,41.3617374 L26.4224554,41.3617374 L26.4224554,34.2230655 L28.6636664,34.2230655 C29.8290368,34.2230655 30.7339756,34.5306796 31.3785101,35.1459171 C32.0230446,35.7611545 32.345307,36.6205209 32.345307,37.7240421 Z M30.7730414,37.7631046 C30.7730414,36.2298938 30.0959648,35.4632999 28.7417914,35.4632999 L27.9361273,35.4632999 L27.9361273,40.1117374 L28.5855414,40.1117374 C30.043882,40.1117374 30.7730414,39.3288676 30.7730414,37.7631046 Z M37.994721,41.3617374 L37.4771429,39.6625186 L34.8746039,39.6625186 L34.3570257,41.3617374 L32.7261664,41.3617374 L35.2456976,34.1937686 L37.0962835,34.1937686 L39.6255804,41.3617374 L37.994721,41.3617374 Z M37.1158148,38.3929874 C36.6372968,36.8532662 36.367931,35.9825066 36.3077093,35.7806827 C36.2474877,35.5788588 36.2043566,35.4193552 36.1783148,35.3021671 C36.0708924,35.7188358 35.7632783,36.749099 35.2554632,38.3929874 L37.1158148,38.3929874 Z M42.579682,41.3617374 L41.0660101,41.3617374 L41.0660101,35.4828311 L39.1275335,35.4828311 L39.1275335,34.2230655 L44.5181585,34.2230655 L44.5181585,35.4828311 L42.579682,35.4828311 L42.579682,41.3617374 Z M49.2886664,41.3617374 L48.7710882,39.6625186 L46.1685492,39.6625186 L45.650971,41.3617374 L44.0201117,41.3617374 L46.5396429,34.1937686 L48.3902289,34.1937686 L50.9195257,41.3617374 L49.2886664,41.3617374 Z M48.4097601,38.3929874 C47.9312421,36.8532662 47.6618763,35.9825066 47.6016546,35.7806827 C47.541433,35.5788588 47.4983019,35.4193552 47.4722601,35.3021671 C47.3648377,35.7188358 47.0572236,36.749099 46.5494085,38.3929874 L48.4097601,38.3929874 Z" transform="rotate(-60.7 38.671 37.778)"/>
    <path fill="#FFF" d="M42.0914806,18.231552 L39.4303478,11.6397551 L39.3912853,11.6397551 C39.4173271,12.0434029 39.4303478,12.4568103 39.4303478,12.8799895 L39.4303478,18.231552 L38.9518321,18.231552 L38.9518321,11.0928801 L39.7233165,11.0928801 L42.2526134,17.372177 L42.2819103,17.372177 L44.8112071,11.0928801 L45.5631603,11.0928801 L45.5631603,18.231552 L45.0602306,18.231552 L45.0602306,12.8213957 C45.0602306,12.4437897 45.0797616,12.0531686 45.1188243,11.6495207 L45.0797618,11.6495207 L42.4088634,18.231552 L42.0914806,18.231552 Z M51.0172618,15.7120207 L48.1168712,15.7120207 L47.1207774,18.231552 L46.5690196,18.231552 L49.4401134,11.0635832 L49.7574962,11.0635832 L52.5699962,18.231552 L52.0084728,18.231552 L51.0172618,15.7120207 Z M48.2975353,15.262802 L50.8512462,15.262802 L49.8795665,12.6895598 C49.7981859,12.4877359 49.7005306,12.2077907 49.5865978,11.849716 C49.4987067,12.1622176 49.402679,12.4454179 49.2985118,12.6993254 L48.2975353,15.262802 Z M54.0787853,15.1212004 L54.0787853,18.231552 L53.5807384,18.231552 L53.5807384,11.0928801 L55.2799571,11.0928801 C56.1653782,11.0928801 56.8196686,11.2564527 57.2428478,11.5836028 C57.666027,11.9107528 57.8776134,12.4030982 57.8776134,13.0606535 C57.8776134,13.5391716 57.7514753,13.9428133 57.4991954,14.271591 C57.2469155,14.6003687 56.8636186,14.836369 56.3492931,14.9795988 L58.2877696,18.231552 L57.6920665,18.231552 L55.8512462,15.1212004 L54.0787853,15.1212004 Z M54.0787853,14.6915129 L55.4410899,14.6915129 C56.0433065,14.6915129 56.5104242,14.5572369 56.8424571,14.2886809 C57.17449,14.0201248 57.340504,13.6238072 57.340504,13.099716 C57.340504,12.5560935 57.1777452,12.1605897 56.8522228,11.9131926 C56.5267003,11.6657955 55.9961066,11.5420988 55.2604259,11.5420988 L54.0787853,11.5420988 L54.0787853,14.6915129 Z M64.3229259,18.231552 L63.7125743,18.231552 L60.9733165,14.4620207 L60.0211681,15.3018645 L60.0211681,18.231552 L59.5231212,18.231552 L59.5231212,11.0928801 L60.0211681,11.0928801 L60.0211681,14.8038176 L60.8121837,14.012802 L63.6100353,11.0928801 L64.2448009,11.0928801 L61.3199962,14.1104582 L64.3229259,18.231552 Z" transform="rotate(-60.7 51.637 14.648)"/>
  </g>
</svg>
