<svg xmlns="http://www.w3.org/2000/svg" width="64" height="64" viewBox="0 0 64 64">
  <g fill="none" fill-rule="evenodd">
    <path fill="#9ACA33" d="M30.4768582,63.9622755 C20.0061057,63.457085 9.99198187,57.8376414 4.30436587,48.117984 C2.5388591,45.1094548 1.34299233,41.9330516 0.642574046,38.7025766 C2.5388591,40.7617057 5.29589157,42.8189487 9.05136591,43.399906 C9.26199439,43.8085882 9.60340115,44.4851143 9.83792181,44.8887664 C16.9911165,57.1052182 32.6958273,61.2083867 44.9085066,54.0551921 C47.7529342,52.3909127 50.1377516,50.2481609 52.0654737,47.8036131 C53.0444246,51.3113632 52.2962219,54.8335744 51.2449658,57.558541 C50.2773323,58.2809652 49.2744892,58.9706949 48.2094007,59.5956642 C43.5889623,62.3013811 38.5704694,63.7206347 33.569328,63.9622755 L30.4768582,63.9622755 Z M46.4093132,40.3140416 C48.9770944,42.1065843 50.560266,44.1154141 51.4750853,46.1739145 C49.5750277,48.7831927 47.1317374,51.0573515 44.1647052,52.7882775 C32.6524441,59.5346762 17.8506064,55.6628847 11.1104951,44.1499949 C11.0394473,44.030534 10.8929504,43.6796961 10.82819,43.5589777 C12.4333677,43.5640076 14.0706111,43.4401455 16.1045906,42.7007452 C16.1045906,42.7007452 16.9911165,42.4077516 18.3875518,41.5910161 C23.3030547,48.6744204 32.8435816,50.7983099 40.4092308,46.3681957 C43.0002755,44.8522994 45.0141353,42.7397272 46.4093132,40.3140416 Z M36.0287872,35.8436879 C39.8590818,36.8396148 42.889617,38.1461402 45.2121889,39.5488629 C43.9301845,41.7752374 42.0841988,43.7130194 39.7132137,45.0993949 C32.8247194,49.1352881 24.0996704,46.878734 19.7582088,40.9226636 C21.7494338,39.6796412 24.1707182,37.8185657 27.1182595,34.9169226 C28.7108623,37.7418592 32.3122949,38.4209003 34.8549264,36.8207526 C35.2956744,36.5478787 35.6804643,36.1957833 36.0287872,35.8436879 Z"/>
    <path fill="#F3C333" d="M8.22205557,41.5639802 C4.70676057,40.6365861 2.03963816,38.2115293 0.221317088,35.9222807 C0.0867663584,34.7251564 0,33.5123136 0,32.2743212 C0,14.5526068 14.3661197,0.187115825 32.0878341,0.187115825 C35.5685483,0.187115825 38.9184842,0.759270798 42.0659653,1.78726352 C39.3284238,2.3820532 36.1551643,3.7231593 33.7571434,6.67321549 C33.3006769,6.64743708 32.5424143,6.59965271 32.0765167,6.59965271 C17.9210255,6.59965271 6.44711768,18.0741892 6.44711768,32.2321955 C6.44711768,35.5249159 7.08969172,38.6661096 8.22205557,41.5639802 Z M17.5431517,40.4693408 C14.703754,41.7796386 12.1648949,42.131734 9.92594566,41.8758361 C8.64016882,38.9213787 7.91145716,35.6594666 7.91145716,32.230938 C7.91145716,18.8833798 18.7333598,8.0671359 32.0727443,8.0671359 C32.2066663,8.0671359 32.5864263,8.11932146 32.7247494,8.12309391 C31.9099002,9.50632571 31.1862184,10.9838688 30.8020572,13.1083871 C30.8020572,13.1083871 30.5989737,14.0257213 30.5989737,15.6409588 C22.0091042,16.30491 15.356388,23.4662783 15.356388,32.2321955 C15.356388,35.2312935 16.1555187,38.0379966 17.5431517,40.4693408 Z M26.6460744,33.769469 C23.8557186,36.5686272 21.1967699,38.5246427 18.8100663,39.8173357 C17.537493,37.59159 16.794949,35.020665 16.794949,32.2686625 C16.794949,24.2905587 23.1540429,17.8987703 30.4895726,17.1644 C30.556848,19.5096066 30.936608,22.5407705 31.9532833,26.5452265 C28.7108623,26.4898973 26.3071826,29.2563609 26.396464,32.2630038 C26.4159549,32.781087 26.5234698,33.2903678 26.6460744,33.769469 Z"/>
    <path fill="#199CC0" d="M44.4444953,9.80812174 C41.5805767,8.1771657 38.5355805,7.18438251 35.4490874,6.73546092 C38.00115,4.14001507 41.4208763,3.02085479 44.3105733,2.57067572 C45.4234461,3.04600446 46.5212292,3.57226129 47.5919763,4.18214076 C62.9986636,12.9512016 68.3762916,32.5415364 59.6103745,47.9457087 C57.8901371,50.9712139 55.7348105,53.5993543 53.2896339,55.8194414 C54.1189442,53.1504327 54.5213389,49.7300777 53.1500532,46.1877469 C53.4002924,45.8004419 53.815262,45.1666703 54.0466389,44.7617606 C61.0457918,32.4610575 56.7477134,16.8079034 44.4444953,9.80812174 Z M31.7998704,15.377516 C32.0633131,12.2602145 33.0127132,9.88482823 34.3406157,8.06147722 C37.5440548,8.40477021 40.7405777,9.38623604 43.7239572,11.0857249 C55.3185834,17.6862556 59.3720814,32.4359078 52.7715507,44.0324202 C52.7030178,44.1518811 52.4684972,44.4530484 52.4018506,44.5725094 C51.6014623,43.1811039 50.6753258,41.8205068 49.0185913,40.4353888 C49.0185913,40.4353888 48.3200593,39.8104195 46.9141928,39.0075163 C50.5917031,31.2142626 47.6567367,21.8824779 40.0395307,17.5479324 C37.4302525,16.0628445 34.5958848,15.377516 31.7998704,15.377516 Z M33.1126831,26.604957 C32.0689718,22.7941534 31.6797807,19.5146365 31.7313375,16.8041309 C34.2940888,16.7959573 36.903367,17.4253278 39.2906993,18.7840386 C46.2238343,22.7325367 48.6356876,31.4173462 45.6479069,38.1562 C43.5762029,37.0546445 40.7544101,35.8876999 36.769445,34.7880306 C38.419892,31.9945311 37.205163,28.5351941 34.5481005,27.1343575 C34.0872328,26.8891483 33.592413,26.7294479 33.1126831,26.604957 Z"/>
  </g>
</svg>
