<svg xmlns="http://www.w3.org/2000/svg" width="46" height="64" viewBox="0 0 46 64">
  <g fill="none" fill-rule="evenodd">
    <path fill="#FAA634" fill-rule="nonzero" d="M0.103448276,0.954859255 C0.103448276,0.954859255 0.101793103,6.14392828 0.103448276,6.58089368 C14.4202481,4.29808673 21.4132417,8.42520353 25.1185113,10.239824 C28.5398623,6.12406665 32.6740407,2.90310091 36.114704,0.954859255 C34.8017094,0.954859255 0.103448276,0.954859255 0.103448276,0.954859255 Z"/>
    <path fill="#B9AB97" fill-rule="nonzero" d="M45.6136264,34.7322914 L45.6136264,0.955410979 C45.6136264,0.955410979 43.1605518,0.958610869 42.8119737,0.96136949 C35.8173238,3.66713479 33.193435,5.5815072 26.748413,10.9236308 C40.679999,19.241535 45.6136264,34.7322914 45.6136264,34.7322914 Z"/>
    <path fill="#FFF" fill-rule="nonzero" d="M0.0823724138,7.84225258 C0.0823724138,7.84225258 11.4003306,7.28456905 15.2349245,9.38696408 C10.0393384,12.6040735 7.75111724,15.4489842 5.71062091,18.1095087 C-3.25699255,32.0237713 6.6998624,31.5297569 12.5129386,29.1720193 C17.2753109,27.8104744 18.8873377,27.4047358 21.4811046,27.8196318 C23.0194199,28.2366261 23.2747594,29.6121838 23.3373247,30.9731773 C23.9558066,36.2910252 10.8437523,40.8675759 9.3599445,41.9198262 C4.5970208,44.0846801 0.0823724138,47.3626931 0.0823724138,47.3626931 L0.0823724138,7.84225258 Z M13.8227307,63.7867474 C13.8227307,63.7867474 12.1147029,52.0205667 26.5252959,39.7140323 C27.3001372,39.0087058 46.9213193,20.9726257 16.4305103,24.3739991 C11.7871999,25.2576451 7.99895183,24.4790532 12.6987588,16.8713283 C14.8017105,13.7166801 16.1320275,12.8702255 19.254786,10.5631356 C39.1697113,17.9839287 45.6180377,40.4349112 45.6180377,40.4349112 L45.6212369,63.7867474 L13.8227307,63.7867474 Z"/>
  </g>
</svg>
