<svg xmlns="http://www.w3.org/2000/svg" width="64" height="39" viewBox="0 0 64 39">
  <g fill="none" fill-rule="evenodd">
    <path fill="#FFF" fill-rule="nonzero" d="M18.2734504,15.9671922 C18.4437022,16.4406129 18.6565169,16.957072 18.9544575,17.5165693 C19.0608649,17.6887223 19.1034278,17.8608753 19.1034278,18.0115092 C19.1034278,18.2267005 18.975739,18.4418917 18.6990798,18.657083 L17.3583471,19.5608863 C17.1668138,19.6900011 16.9752806,19.7545585 16.8050288,19.7545585 C16.5922141,19.7545585 16.3793994,19.6469628 16.1665846,19.4532907 C15.868644,19.1305038 15.6132664,18.7861978 15.4004516,18.4418917 C15.1876369,18.0760666 14.9748222,17.6672032 14.740726,17.1722633 C13.0807712,19.1520229 10.9951869,20.1419028 8.48397314,20.1419028 C6.69632947,20.1419028 5.27047083,19.6254437 4.22767869,18.5925256 C3.18488655,17.5596075 2.65284974,16.1823834 2.65284974,14.4608533 C2.65284974,12.6317275 3.29129391,11.1469077 4.58946372,10.0279131 C5.88763353,8.90891853 7.61143278,8.34942123 9.80342442,8.34942123 C10.5269945,8.34942123 11.271846,8.41397861 12.0592605,8.52157425 C12.846675,8.62916988 13.6553709,8.8013229 14.5066298,8.99499504 L14.5066298,7.42409878 C14.5066298,5.78864513 14.1661262,4.64813141 13.5064006,3.98103847 C12.8253935,3.31394554 11.676194,2.99115864 10.0375206,2.99115864 C9.29266909,2.99115864 8.52653609,3.07723514 7.73912161,3.27090729 C6.95170714,3.46457943 6.18557414,3.70128982 5.44072261,4.0025576 C5.10021905,4.15319149 4.84484138,4.239268 4.69587108,4.28230625 C4.54690077,4.3253445 4.44049341,4.34686363 4.35536752,4.34686363 C4.05742691,4.34686363 3.9084566,4.13167236 3.9084566,3.6797707 L3.9084566,2.62533348 C3.9084566,2.28102745 3.95101955,2.02279793 4.05742691,1.87216404 C4.16383427,1.72153015 4.35536752,1.57089626 4.65330813,1.42026237 C5.39815966,1.03291809 6.2919815,0.710131187 7.33477364,0.451901665 C8.37756578,0.172153015 9.48420234,0.0430382538 10.6546833,0.0430382538 C13.1871785,0.0430382538 15.0386666,0.62405468 16.230429,1.78608753 C17.40091,2.94812038 17.9967912,4.71268879 17.9967912,7.07979275 L17.9967912,14.0519899 C18.0393542,14.8481976 18.1244801,15.4937714 18.2734504,15.9671922 Z M11.5910681,16.9355529 C12.3572011,16.6773233 13.0382082,16.2039025 13.612808,15.5583287 C13.9533115,15.1494653 14.2086892,14.6975637 14.336378,14.1811046 C14.4640669,13.6646456 14.5491927,13.0405909 14.5491927,12.3089406 L14.5491927,11.4051373 C13.93203,11.2545034 13.2723044,11.1253886 12.5912973,11.0393121 C11.9102902,10.9532356 11.2505645,10.9101973 10.5908389,10.9101973 C9.16498026,10.9101973 8.12218811,11.189946 7.41989953,11.7709624 C6.71761094,12.3519788 6.37710739,13.1697057 6.37710739,14.245662 C6.37710739,15.257061 6.63248506,16.0102304 7.16452186,16.5266894 C7.6752772,17.0646676 8.42012873,17.3228971 9.39907645,17.3228971 C10.101365,17.3228971 10.8249351,17.1937824 11.5910681,16.9355529 Z M25.6794027,19.4317716 C25.509151,19.3026568 25.3601807,19.001389 25.2324918,18.5925256 L20.2313458,1.95824055 C20.103657,1.52785801 20.0398126,1.24810936 20.0398126,1.09747547 C20.0398126,0.753169441 20.2100644,0.559497299 20.5505679,0.559497299 L22.6361522,0.559497299 C23.0405002,0.559497299 23.3171593,0.62405468 23.4661296,0.774688568 C23.6363814,0.903803329 23.7640702,1.20507111 23.8917591,1.61393452 L27.4670464,15.8595965 L30.7869561,1.61393452 C30.8933634,1.18355198 31.0210523,0.903803329 31.1913041,0.774688568 C31.3615558,0.645573807 31.6594964,0.559497299 32.0425629,0.559497299 L33.7450807,0.559497299 C34.1494287,0.559497299 34.4260878,0.62405468 34.5963396,0.774688568 C34.7665914,0.903803329 34.9155617,1.20507111 35.0006876,1.61393452 L38.3631602,16.0317495 L42.0448549,1.61393452 C42.1725437,1.18355198 42.3215141,0.903803329 42.4704844,0.774688568 C42.6407361,0.645573807 42.9173953,0.559497299 43.3004618,0.559497299 L45.2796387,0.559497299 C45.6201423,0.559497299 45.8116755,0.731650314 45.8116755,1.09747547 C45.8116755,1.20507111 45.790394,1.31266674 45.7691126,1.4417815 C45.7478311,1.57089626 45.7052681,1.74304928 45.6201423,1.97975967 L40.4913074,18.6140448 C40.3636186,19.0444273 40.2146483,19.3241759 40.0443965,19.4532907 C39.8741447,19.5824055 39.5974856,19.668482 39.2357006,19.668482 L37.405494,19.668482 C37.001146,19.668482 36.7244868,19.6039246 36.5542351,19.4532907 C36.3839833,19.3026568 36.235013,19.0229082 36.1498871,18.5925256 L32.8512589,4.71268879 L29.5739122,18.5710065 C29.4675048,19.001389 29.339816,19.2811377 29.1695642,19.4317716 C28.9993124,19.5824055 28.7013718,19.6469628 28.3183053,19.6469628 L26.4880987,19.6469628 C26.1050322,19.6469628 25.8496545,19.5824055 25.6794027,19.4317716 Z M50.5574438,19.840635 C49.4933702,19.5824055 48.6633928,19.3026568 48.1100745,18.9798699 C47.769571,18.7861978 47.5354748,18.5710065 47.4503489,18.3773344 C47.365223,18.1836622 47.32266,17.968471 47.32266,17.7747988 L47.32266,16.6773233 C47.32266,16.2254217 47.4929118,16.0102304 47.8121339,16.0102304 C47.9398227,16.0102304 48.0675116,16.0317495 48.1952004,16.0747878 C48.3228892,16.117826 48.5144225,16.2039025 48.7272372,16.2899791 C49.4508073,16.612766 50.2382217,16.8709955 51.0681992,17.0431485 C51.919458,17.2153015 52.7494355,17.301378 53.6006944,17.301378 C54.9414271,17.301378 55.9842192,17.0646676 56.7077893,16.5912468 C57.4313594,16.117826 57.8144259,15.429214 57.8144259,14.5469298 C57.8144259,13.9443942 57.6228926,13.4494543 57.2398261,13.0405909 C56.8567596,12.6317275 56.1331896,12.2659023 55.0903974,11.9215963 L52.0045839,10.9532356 C50.4510365,10.4582957 49.301837,9.72664535 48.5995484,8.75828464 C47.8972598,7.81144306 47.5354748,6.75700584 47.5354748,5.63801124 C47.5354748,4.73420792 47.727008,3.93800022 48.1100745,3.24938816 C48.493141,2.5607761 49.0038963,1.95824055 49.6423405,1.48481976 C50.2807847,0.989879837 51.0043547,0.62405468 51.8556136,0.365825157 C52.7068725,0.107595634 53.6006944,0 54.5370791,0 C55.0052715,0 55.4947454,0.0215191269 55.9629378,0.0860765076 C56.4524116,0.150633888 56.8993226,0.236710396 57.3462335,0.322786903 C57.7718629,0.430382538 58.1762109,0.537978172 58.5592774,0.667092934 C58.9423439,0.796207695 59.2402845,0.925322456 59.4530992,1.05443722 C59.7510398,1.22659023 59.9638546,1.39874325 60.0915434,1.59241539 C60.2192322,1.7645684 60.2830766,2.0012788 60.2830766,2.30254658 L60.2830766,3.31394554 C60.2830766,3.76584721 60.1128249,4.0025576 59.7936028,4.0025576 C59.623351,4.0025576 59.3466919,3.91648109 58.9849068,3.74432808 C57.7718629,3.18483078 56.4098487,2.90508213 54.8988642,2.90508213 C53.6858202,2.90508213 52.728154,3.09875427 52.0684283,3.50761768 C51.4087027,3.91648109 51.0681992,4.54053577 51.0681992,5.42281998 C51.0681992,6.02535553 51.2810139,6.54181457 51.7066433,6.95067798 C52.1322728,7.3595414 52.9196872,7.76840481 54.0476053,8.13422996 L57.0695743,9.10259067 C58.6018403,9.59753059 59.7084769,10.2861427 60.3682025,11.1684269 C61.0279282,12.0507111 61.3471503,13.06211 61.3471503,14.1811046 C61.3471503,15.1064271 61.155617,15.945673 60.793832,16.6773233 C60.4107655,17.4089737 59.9000101,18.0545475 59.2402845,18.5710065 C58.5805589,19.1089847 57.7931444,19.496329 56.8780411,19.7760776 C55.9203748,20.0773454 54.9201456,20.2279793 53.8347905,20.2279793 C52.728154,20.2279793 51.6215174,20.0988645 50.5574438,19.840635 Z"/>
    <path fill="#F90" fill-rule="nonzero" d="M57.8545935,30.4764631 C50.8524157,35.6956446 40.6790387,38.4663212 31.9316372,38.4663212 C19.6725052,38.4663212 8.62651646,33.8914831 0.283496057,26.2882311 C-0.376283617,25.6868439 0.219646411,24.8706756 1.00712538,25.3431941 C10.0312087,30.6268099 21.1623303,33.8270488 32.6765498,33.8270488 C40.4449234,33.8270488 48.9794927,32.1947122 56.8329992,28.8441265 C58.003576,28.3071737 59.0038871,29.6173386 57.8545935,30.4764631 Z"/>
    <path fill="#F90" fill-rule="nonzero" d="M60.7929265,27.0816515 C59.9031872,25.9203484 54.9037,26.5225056 52.6369834,26.8020786 C51.9590868,26.888101 51.8531655,26.2859438 52.4675093,25.834326 C56.4501516,22.995585 62.9960903,23.8127983 63.7587239,24.7590453 C64.5213576,25.7267979 63.5468813,32.3720324 59.8184501,35.5548632 C59.2464749,36.0494923 58.695684,35.791425 58.9498952,35.1462566 C59.7972659,33.0172008 61.6826657,28.2214491 60.7929265,27.0816515 Z"/>
  </g>
</svg>
