<svg xmlns="http://www.w3.org/2000/svg" width="64" height="45" viewBox="0 0 64 45">
  <g fill="#FFF" fill-rule="evenodd">
    <path fill-rule="nonzero" d="M57.1708527 9.87782946C57.1708527 6.6455814 57.1683721 3.41581395 57.1733333.183565891 57.8555039.181085271 58.540155.181085271 59.2248062.181085271 59.2347287 3.23224806 59.2248062 6.28341085 59.2297674 9.33457364 60.7627907 8.92775194 62.2908527 8.51100775 63.823876 8.10418605 63.8263566 9.80589147 63.8263566 11.5075969 63.823876 13.2117829 62.2933333 13.6260465 60.7578295 14.0328682 59.2297674 14.4496124 59.2297674 18.6096124 59.2272868 22.772093 59.2297674 26.932093 60.7627907 26.5252713 62.2908527 26.1085271 63.823876 25.7017054 63.8263566 27.4034109 63.823876 29.1051163 63.823876 30.8068217 62.2933333 31.2235659 60.7603101 31.627907 59.2297674 32.0446512 59.2248062 35.056124 59.2297674 38.0675969 59.2272868 41.0790698 58.5426357 41.0790698 57.8555039 41.0790698 57.1708527 41.0765891 57.1683721 38.2387597 57.1733333 35.3984496 57.1708527 32.5606202 54.1147287 33.3817054 51.0610853 34.2027907 48.0074419 35.0313178 48.0049612 38.2660465 48.0099225 41.4982946 48.0049612 44.7330233 47.3153488 44.7330233 46.6257364 44.7330233 45.936124 44.7330233 45.9311628 41.6818605 45.9386047 38.6282171 45.9336434 35.5770543 44.4055814 35.983876 42.8824806 36.4006202 41.3544186 36.8049612 41.351938 35.0933333 41.351938 33.3817054 41.3544186 31.6700775 42.88 31.2533333 44.408062 30.8514729 45.9336434 30.4347287 45.9336434 26.2846512 45.9386047 22.132093 45.9336434 17.9820155 44.4055814 18.3863566 42.8824806 18.8031008 41.3544186 19.2099225 41.351938 17.5057364 41.351938 15.804031 41.3544186 14.1023256 42.88 13.6855814 44.408062 13.2837209 45.9336434 12.8669767 45.936124 9.85302326 45.9336434 6.83658915 45.936124 3.82015504 46.6257364 3.82015504 47.3153488 3.82015504 48.0074419 3.82263566 48.0099225 6.66294574 48.0049612 9.50573643 48.0074419 12.3485271 51.0635659 11.5274419 54.1172093 10.7063566 57.1708527 9.87782946zM48.0099225 17.4610853C48.0049612 21.6136434 48.0074419 25.7662016 48.0074419 29.9187597 51.0635659 29.0951938 54.1172093 28.2716279 57.1708527 27.448062 57.1708527 23.2955039 57.1733333 19.1454264 57.1683721 14.9928682 54.1147287 15.8114729 51.0635659 16.64 48.0099225 17.4610853zM10.8179845 2.61457364C14.4496124.838449612 18.6145736.354728682 22.6058915.79627907 26.3987597 1.22294574 30.1048062 2.89984496 32.7044961 5.73271318 34.5922481 7.75193798 35.8275969 10.292093 36.6089922 12.924031 34.7931783 13.3556589 32.9773643 13.7872868 31.1590698 14.2139535 30.1990698 11.128062 28.3683721 8.09922481 25.3891473 6.61333333 22.0775194 4.98108527 18.1010853 5.12248062 14.648062 6.23131783 10.827907 7.48651163 8.16124031 10.9469767 6.9903876 14.6827907 5.64589147 18.9668217 5.68806202 23.5882171 6.45705426 27.9764341 7.07224806 31.5137984 8.81860465 34.9568992 11.8003101 37.0629457 15.0648062 39.4567442 19.4604651 39.875969 23.307907 38.9010853 26.2548837 38.151938 28.7305426 36.0210853 30.1048062 33.332093 30.8886822 31.875969 31.3972093 30.2883721 31.7891473 28.6858915 33.6347287 29.1572093 35.4852713 29.6136434 37.3283721 30.099845 36.303876 33.9968992 34.4334884 37.8393798 31.2310078 40.4018605 27.9268217 43.1181395 23.5708527 44.2815504 19.3389147 44.1475969 14.5835659 44.1004651 9.5379845 42.7807752 6.17674419 39.2260465 2.8055814 35.5745736.925271318 30.7175194.362170543 25.8207752-.104186047 21.224186.16124031 16.4390698 1.92744186 12.1252713 3.59193798 8.00744186 6.83162791 4.56434109 10.8179845 2.61457364z"/>
  </g>
</svg>
