<svg xmlns="http://www.w3.org/2000/svg" width="54" height="16" viewBox="0 0 54 16">
  <path fill="#FFF" fill-opacity=".9" fill-rule="evenodd" d="M12.2734375,28.0371094 C11.1341089,28.0371094 10.2519562,28.465165 9.62695312,29.3212891 C9.00195,30.1774131 8.68945312,31.3704351 8.68945312,32.9003906 C8.68945312,36.0840003 9.88410264,37.6757812 12.2734375,37.6757812 C13.2760467,37.6757812 14.4902272,37.4251327 15.9160156,36.9238281 L15.9160156,39.4628906 C14.7441348,39.9511743 13.4355541,40.1953125 11.9902344,40.1953125 C9.91340107,40.1953125 8.32487529,39.565436 7.22460938,38.3056641 C6.12434346,37.0458921 5.57421875,35.237642 5.57421875,32.8808594 C5.57421875,31.396477 5.84439834,30.0960342 6.38476562,28.9794922 C6.92513291,27.8629501 7.70149233,27.0068389 8.71386719,26.4111328 C9.72624204,25.8154267 10.9127536,25.5175781 12.2734375,25.5175781 C13.6601632,25.5175781 15.0533784,25.8528612 16.453125,26.5234375 L15.4765625,28.984375 C14.9427057,28.7304675 14.4056017,28.5091155 13.8652344,28.3203125 C13.3248671,28.1315095 12.7942734,28.0371094 12.2734375,28.0371094 Z M18.953125,40 L18.953125,25.7226562 L21.9804688,25.7226562 L21.9804688,40 L18.953125,40 Z M31.9414062,25.7226562 L26.6191406,40 L23.9140625,40 L29.2363281,25.7226562 L31.9414062,25.7226562 Z M39.9003906,28.0371094 C38.761062,28.0371094 37.8789094,28.465165 37.2539062,29.3212891 C36.6289031,30.1774131 36.3164062,31.3704351 36.3164062,32.9003906 C36.3164062,36.0840003 37.5110558,37.6757812 39.9003906,37.6757812 C40.9029998,37.6757812 42.1171804,37.4251327 43.5429688,36.9238281 L43.5429688,39.4628906 C42.3710879,39.9511743 41.0625072,40.1953125 39.6171875,40.1953125 C37.5403542,40.1953125 35.9518284,39.565436 34.8515625,38.3056641 C33.7512966,37.0458921 33.2011719,35.237642 33.2011719,32.8808594 C33.2011719,31.396477 33.4713515,30.0960342 34.0117188,28.9794922 C34.552086,27.8629501 35.3284455,27.0068389 36.3408203,26.4111328 C37.3531952,25.8154267 38.5397067,25.5175781 39.9003906,25.5175781 C41.2871163,25.5175781 42.6803315,25.8528612 44.0800781,26.5234375 L43.1035156,28.984375 C42.5696588,28.7304675 42.0325548,28.5091155 41.4921875,28.3203125 C40.9518202,28.1315095 40.4212266,28.0371094 39.9003906,28.0371094 Z M58.4257812,32.7246094 C58.4257812,35.0748815 57.7568426,36.8749938 56.4189453,38.125 C55.081048,39.3750062 53.1491012,40 50.6230469,40 L46.5800781,40 L46.5800781,25.7226562 L51.0625,25.7226562 C53.3932408,25.7226562 55.2031186,26.3378845 56.4921875,27.5683594 C57.7812564,28.7988343 58.4257812,30.5175671 58.4257812,32.7246094 Z M55.28125,32.8027344 C55.28125,29.7363128 53.9270969,28.203125 51.21875,28.203125 L49.6074219,28.203125 L49.6074219,37.5 L50.90625,37.5 C53.8229313,37.5 55.28125,35.9342604 55.28125,32.8027344 Z" transform="translate(-5 -25)"/>
</svg>
