<svg xmlns="http://www.w3.org/2000/svg" width="57" height="64" viewBox="0 0 57 64">
  <path fill="#E535AB" d="M37.0339471,7.35945431 L50.1803718,14.9497688 C50.5505511,14.5576584 50.9829463,14.2114452 51.4734694,13.9265306 C54.2,12.3591837 57.677551,13.2897959 59.2612245,16.0163265 C60.8285714,18.7428571 59.8979592,22.2204082 57.1714286,23.8040816 C56.6846546,24.0839038 56.1734223,24.2841065 55.6530612,24.4086847 L55.6530612,39.5952495 C56.1677884,39.7200906 56.6734199,39.9190232 57.155102,40.1959184 C59.8979592,41.7795918 60.8285714,45.2571429 59.244898,47.9836735 C57.677551,50.7102041 54.1836735,51.6408163 51.4571429,50.0734694 C50.9143193,49.7614271 50.4426799,49.3730237 50.0477646,48.9295172 L36.9815283,56.4735335 C37.1683149,57.0379398 37.2693878,57.6416776 37.2693878,58.2693878 C37.2693878,61.4040816 34.722449,63.9673469 31.5714286,63.9673469 C28.4204082,63.9673469 25.8734694,61.4204082 25.8734694,58.2693878 C25.8734694,57.7092858 25.9539424,57.1682704 26.1039768,56.6572532 L12.961051,49.0689589 C12.5948242,49.4533704 12.1684134,49.7930992 11.6857143,50.0734694 C8.94285714,51.6408163 5.46530612,50.7102041 3.89795918,47.9836735 C2.33061224,45.2571429 3.26122449,41.7795918 5.9877551,40.1959184 C6.46983044,39.9187972 6.97538377,39.7197659 7.48979592,39.594944 L7.48979592,24.4086847 C6.96943488,24.2841065 6.45820259,24.0839038 5.97142857,23.8040816 C3.24489796,22.2367347 2.31428571,18.7428571 3.88163265,16.0163265 C5.44897959,13.2897959 8.94285714,12.3591837 11.6693878,13.9265306 C12.1572429,14.2098956 12.5876007,14.553894 12.9564395,14.9433747 L26.1064105,7.35101272 C25.9548128,6.83756496 25.8734694,6.29373509 25.8734694,5.73061224 C25.8734694,2.57959184 28.4204082,0.0326530612 31.5714286,0.0326530612 C34.722449,0.0326530612 37.2693878,2.57959184 37.2693878,5.73061224 C37.2693878,6.2968222 37.18715,6.84352705 37.0339471,7.35945431 Z M35.664237,9.69805687 C35.6141977,9.7496717 35.5631881,9.80034032 35.5112376,9.85003361 L52.7222888,39.6595744 C52.7954112,39.6385152 52.8689499,39.6189085 52.9428571,39.6007665 L52.9428571,24.3952005 C51.4925956,24.0347069 50.1858269,23.1096984 49.3836735,21.7142857 C48.5841265,20.3234072 48.4346239,18.7370905 48.8419694,17.3064474 L35.664237,9.69805687 Z M27.6352249,9.85347929 C27.579901,9.8006515 27.5256417,9.74671868 27.4724822,9.69171594 L14.2984646,17.2979617 C14.708822,18.7308156 14.5603118,20.3206566 13.7591837,21.7142857 C12.9570303,23.1096984 11.6502615,24.0347069 10.2,24.3952005 L10.2,39.6022327 C10.2752172,39.6208094 10.3500552,39.6409083 10.4244644,39.6625164 L27.6352249,9.85347929 Z M33.1634963,11.2039154 C32.6583903,11.3501897 32.1242047,11.4285714 31.5714286,11.4285714 C31.0204011,11.4285714 30.4878468,11.3506849 29.9841553,11.2053015 L12.7740195,41.0132566 C13.1571906,41.3788387 13.4958744,41.8042795 13.7755102,42.2857143 C14.0526314,42.7677896 14.2516627,43.273343 14.3764846,43.7877551 L48.7666781,43.7877551 C48.8915192,43.2730279 49.0904518,42.7673965 49.3673469,42.2857143 C49.6458819,41.8011796 49.985259,41.3733622 50.3703594,41.0062022 L33.1634963,11.2039154 Z M35.7852513,54.4306879 L48.8774329,46.8716916 C48.8381557,46.7483372 48.803056,46.6236815 48.7721951,46.4979592 L14.3691959,46.4979592 C14.3509529,46.5718251 14.3312419,46.6453254 14.3100753,46.718413 L27.4664888,54.3144947 C28.5023839,53.2394403 29.9576869,52.5714286 31.5714286,52.5714286 C33.2425423,52.5714286 34.7437514,53.2877832 35.7852513,54.4306879 Z" transform="translate(-3)"/>
</svg>
