<svg xmlns="http://www.w3.org/2000/svg" width="40" height="64" viewBox="0 0 40 64">
  <path fill="#FFF" d="M43.0486154,35.4178462 C40.5584615,35.4178462 38.326,36.5210769 36.7972308,38.258 L32.8798462,35.4847692 C33.2956923,34.3398462 33.5344615,33.1104615 33.5344615,31.8236923 C33.5344615,30.5592308 33.304,29.3504615 32.9018462,28.2224615 L36.8104615,25.4786154 C38.3390769,27.2067692 40.5656923,28.304 43.0486154,28.304 C47.6447692,28.304 51.3846154,24.5647692 51.3846154,19.968 C51.3846154,15.3712308 47.6447692,11.632 43.0486154,11.632 C38.4524615,11.632 34.7126154,15.3712308 34.7126154,19.968 C34.7126154,20.7907692 34.8369231,21.5841538 35.06,22.3355385 L31.1487692,25.0807692 C29.5149231,23.0538462 27.1624615,21.6386154 24.4821538,21.2066154 L24.4821538,16.4927692 C28.2581538,15.6996923 31.1032308,12.3447692 31.1032308,8.336 C31.1032308,3.73923077 27.3633846,0 22.7672308,0 C18.1710769,0 14.4312308,3.73923077 14.4312308,8.336 C14.4312308,12.2910769 17.2026154,15.6046154 20.9030769,16.4543077 L20.9030769,21.2293846 C15.8529231,22.1158462 12,26.5232308 12,31.8236923 C12,37.15 15.8910769,41.5735385 20.9776923,42.4298462 L20.9776923,47.472 C17.2393846,48.2936923 14.4312308,51.6275385 14.4312308,55.6095385 C14.4312308,60.2063077 18.1710769,63.9455385 22.7672308,63.9455385 C27.3633846,63.9455385 31.1032308,60.2063077 31.1032308,55.6095385 C31.1032308,51.6275385 28.2950769,48.2936923 24.5567692,47.472 L24.5567692,42.4296923 C27.1313654,41.9960232 29.4605784,40.6413616 31.1106154,38.618 L35.0541538,41.4092308 C34.8352308,42.1538462 34.7126154,42.9393846 34.7126154,43.7538462 C34.7126154,48.3506154 38.4524615,52.0898462 43.0486154,52.0898462 C47.6447692,52.0898462 51.3846154,48.3506154 51.3846154,43.7538462 C51.3846154,39.1570769 47.6447692,35.4178462 43.0486154,35.4178462 Z M43.0486154,15.9263077 C45.2773846,15.9263077 47.0901538,17.7398462 47.0901538,19.968 C47.0901538,22.1961538 45.2773846,24.0095385 43.0486154,24.0095385 C40.8198462,24.0095385 39.0070769,22.1961538 39.0070769,19.968 C39.0070769,17.7398462 40.8198462,15.9263077 43.0486154,15.9263077 Z M18.7255385,8.336 C18.7255385,6.10784615 20.5384615,4.29446154 22.7672308,4.29446154 C24.996,4.29446154 26.8087692,6.10784615 26.8087692,8.336 C26.8087692,10.5641538 24.996,12.3775385 22.7672308,12.3775385 C20.5384615,12.3775385 18.7255385,10.5641538 18.7255385,8.336 Z M26.8087692,55.6095385 C26.8087692,57.8376923 24.996,59.6510769 22.7672308,59.6510769 C20.5384615,59.6510769 18.7255385,57.8376923 18.7255385,55.6095385 C18.7255385,53.3813846 20.5384615,51.568 22.7672308,51.568 C24.996,51.568 26.8087692,53.3813846 26.8087692,55.6095385 Z M22.7669231,37.4603077 C19.6584615,37.4603077 17.1296923,34.932 17.1296923,31.8236923 C17.1296923,28.7152308 19.6584615,26.1864615 22.7669231,26.1864615 C25.8752308,26.1864615 28.404,28.7152308 28.404,31.8236923 C28.404,34.932 25.8752308,37.4603077 22.7669231,37.4603077 Z M43.0486154,47.7955385 C40.8198462,47.7955385 39.0070769,45.982 39.0070769,43.7538462 C39.0070769,41.5256923 40.8198462,39.7123077 43.0486154,39.7123077 C45.2773846,39.7123077 47.0901538,41.5256923 47.0901538,43.7538462 C47.0901538,45.982 45.2773846,47.7955385 43.0486154,47.7955385 Z" transform="translate(-12)"/>
</svg>
