<svg xmlns="http://www.w3.org/2000/svg" width="57" height="64" viewBox="0 0 57 64">
  <g fill="#689F63" fill-rule="evenodd">
    <path fill-rule="nonzero" d="M28.3037091,63.9592727 C27.4542545,63.9592727 26.6106182,63.7364364 25.8658909,63.3076364 L18.1061818,58.7136 C16.9472,58.0654545 17.5127273,57.8362182 17.8949818,57.7041455 C19.4402909,57.1630545 19.7538909,57.0408727 21.4033455,56.1041455 C21.5767273,56.0052364 21.8036364,56.0401455 21.9810909,56.1448727 L27.9424,59.6823273 C28.1576727,59.7986909 28.4631273,59.7986909 28.6626909,59.6823273 L51.9063273,46.2656 C52.1216,46.1434182 52.2612364,45.8932364 52.2612364,45.6372364 L52.2612364,18.8154182 C52.2612364,18.5477818 52.1216,18.3092364 51.9016727,18.1754182 L28.6673455,4.77032727 C28.4520727,4.64232727 28.1669818,4.64232727 27.9517091,4.77032727 L4.72203636,18.1754182 C4.49687273,18.3034182 4.35374545,18.5536 4.35374545,18.8096 L4.35374545,45.6314182 C4.35374545,45.8874182 4.49338182,46.1317818 4.71447273,46.2539636 L11.0795636,49.9310545 C14.5355636,51.6590545 16.6475636,49.6226909 16.6475636,47.5746909 L16.6475636,21.1019636 C16.6475636,20.7237818 16.9442909,20.4328727 17.3224727,20.4328727 L20.2664727,20.4328727 C20.6330182,20.4328727 20.9355636,20.7237818 20.9355636,21.1019636 L20.9355636,47.5863273 C20.9355636,52.1943273 18.4221091,54.8416 14.0526545,54.8416 C12.7086545,54.8416 11.6497455,54.8416 8.69410909,53.3870545 L2.59665455,49.8728727 C1.08974545,49.0001455 0.158836364,47.3710545 0.158836364,45.6314182 L0.158836364,18.8096 C0.158836364,17.0641455 1.08974545,15.4350545 2.59665455,14.5739636 L25.8635636,1.15141818 C27.3355636,0.319418182 29.2904727,0.319418182 30.7508364,1.15141818 L53.9886545,14.5797818 C55.4897455,15.4466909 56.4264727,17.0699636 56.4264727,18.8154182 L56.4264727,45.6372364 C56.4264727,47.3768727 55.4897455,49.0001455 53.9886545,49.8728727 L30.7508364,63.2954182 C30.0061091,63.7259636 29.1624727,63.9470545 28.3013818,63.9470545"/>
    <path fill-rule="nonzero" d="M35.4833455,45.4772364 C25.3131636,45.4772364 23.1808,40.8087273 23.1808,36.8930909 C23.1808,36.5207273 23.4810182,36.224 23.8539636,36.224 L26.8561455,36.224 C27.1877818,36.224 27.4670545,36.4654545 27.5194182,36.7930182 C27.9732364,39.8522182 29.3230545,41.3952 35.4728727,41.3952 C40.3717818,41.3952 42.4546909,40.2885818 42.4546909,37.6907636 C42.4546909,36.1954909 41.8612364,35.0842182 34.2510545,34.3394909 C27.8859636,33.7111273 23.9528727,32.3089455 23.9528727,27.2180364 C23.9528727,22.5285818 27.9092364,19.7358545 34.5361455,19.7358545 C41.9776,19.7358545 45.6663273,22.3191273 46.1317818,27.8696727 C46.1492364,28.0616727 46.0794182,28.2478545 45.9514182,28.3874909 C45.8234182,28.5213091 45.6430545,28.6027636 45.4568727,28.6027636 L42.4372364,28.6027636 C42.1230545,28.6027636 41.8496,28.3816727 41.7856,28.0791273 C41.0583273,24.8616727 39.3012364,23.8318545 34.5245091,23.8318545 C29.1776,23.8318545 28.5550545,25.6936727 28.5550545,27.0900364 C28.5550545,28.7831273 29.2881455,29.2776727 36.5026909,30.2318545 C43.6474182,31.1802182 47.0394182,32.5184 47.0394182,37.5394909 C47.0394182,42.6013091 42.8154182,45.5045818 35.4496,45.5045818 L35.4833455,45.4772364 Z"/>
  </g>
</svg>
