<svg xmlns="http://www.w3.org/2000/svg" width="56" height="58" viewBox="0 0 56 58">
  <g fill="none" fill-rule="evenodd" transform="translate(1 1)">
    <path fill="#336791" fill-rule="nonzero" d="M52.4175,34.5313636 C45.5581364,35.9462727 45.0865909,33.6238636 45.0865909,33.6238636 C52.329,22.8773182 55.3565455,9.23618182 52.7438182,5.89759091 C45.6160909,-3.20945455 33.2776364,1.09759091 33.0717273,1.20940909 L33.0054545,1.22127273 C31.6502727,0.939954545 30.1336364,0.772363636 28.4290909,0.744545455 C25.3253182,0.693681818 22.971,1.55822727 21.1845,2.913 C21.1845,2.913 -0.826090909,-6.1545 0.197590909,14.3170909 C0.415363636,18.6722727 6.43977273,47.2703182 13.6254545,38.6323636 C16.2518182,35.4737727 18.7894091,32.8030909 18.7894091,32.8030909 C20.0498182,33.6403636 21.5586818,34.0674545 23.1405,33.9140455 L23.2633636,33.8097273 C23.2251818,34.2019091 23.2426364,34.5855 23.3125909,35.0395909 C21.4614545,37.1078182 22.0054091,37.4709545 18.3049091,38.2326818 C14.5605,39.0043636 16.7601818,40.3782273 18.1963636,40.7372727 C19.9374545,41.1726818 23.9655,41.7894545 26.6871818,37.9794545 L26.5786364,38.4141818 C27.3039545,38.9950909 27.8132727,42.1929545 27.7279091,45.0917727 C27.6425455,47.9907273 27.5855455,49.9809545 28.1570455,51.5355 C28.7285455,53.0900455 29.2981364,56.5877727 34.1627727,55.5454091 C38.2276364,54.6743182 40.3340455,52.4169545 40.6270909,48.6515455 C40.8350455,45.9745909 41.3056364,46.3703182 41.3353636,43.977 L41.7128182,42.8439545 C42.1480909,39.2151818 41.7819545,38.0445 44.2862727,38.589 L44.8948636,38.6424545 C46.7380909,38.7263182 49.1505,38.346 50.5663636,37.6879091 C53.6151818,36.273 55.4233636,33.9106364 52.4172273,34.5313636 L52.4175,34.5313636 Z"/>
    <path stroke="#FFF" stroke-linecap="round" stroke-linejoin="round" stroke-width="2" d="M26.9817273 36.6114545C26.7928636 43.3636364 27.0291818 50.1628636 27.6898636 51.8153182 28.3509545 53.4677727 29.7657273 56.6818636 34.6307727 55.6396364 38.6952273 54.7682727 40.1740909 53.082 40.8158182 49.3599545 41.2884545 46.6215 42.1996364 39.0162273 42.3165 37.458M21.1505455 2.76218182C21.1505455 2.76218182-.875045455-6.24.148909091 14.2315909.366681818 18.5867727 6.3915 47.1857727 13.5770455 38.5474091 16.2028636 35.3884091 18.5776364 32.9108182 18.5776364 32.9108182M33.0475909 1.11913636C32.2851818 1.35818182 45.2995909-3.63845455 52.6958182 5.81236364 55.3084091 9.15109091 52.2808636 22.7922273 45.0385909 33.5390455"/>
    <path stroke="#FFF" stroke-linecap="round" stroke-linejoin="bevel" stroke-width="2" d="M45.0384545,33.5390455 C45.0384545,33.5390455 45.5104091,35.8621364 52.3699091,34.4462727 C55.3753636,33.8255455 53.5666364,36.1881818 50.5185,37.6037727 C48.0169091,38.7647727 42.4084091,39.0623182 42.3167727,37.458 C42.081,33.3186818 45.2686364,34.5762273 45.0385909,33.5390455 C44.8306364,32.6049545 43.4050909,31.6881818 42.4621364,29.4020455 C41.6389091,27.4066364 31.1717727,12.1044545 45.3649091,14.3770909 C45.8848636,14.2695 41.6631818,0.876818182 28.3804091,0.659045455 C15.1006364,0.441272727 15.5363182,16.9902273 15.5363182,16.9902273"/>
    <path stroke="#FFF" stroke-linecap="round" stroke-linejoin="round" stroke-width="2" d="M23.2641818,34.9546364 C21.4127727,37.0227273 21.9572727,37.3858636 18.2565,38.1478636 C14.5120909,38.9196818 16.7120455,40.2932727 18.1478182,40.6521818 C19.8889091,41.0878636 23.9169545,41.7046364 26.6386364,37.8936818 C27.4674545,36.7333636 26.6337273,34.8819545 25.4952273,34.41 C24.9451364,34.1821364 24.2095909,33.8965909 23.2641818,34.9546364 Z"/>
    <path stroke="#FFF" stroke-linecap="round" stroke-linejoin="round" stroke-width="2" d="M23.1429545,34.9185 C22.9564091,33.7025455 23.5425,32.2555909 24.1705909,30.5627727 C25.1145,28.0228636 27.2923636,25.4825455 25.5501818,17.4256364 C24.2515909,11.4216818 15.5416364,16.1761364 15.5361818,16.9902273 C15.5308636,17.8040455 15.9301364,21.1165909 15.3906818,24.9740455 C14.6867727,30.0076364 18.5935909,34.2647727 23.0923636,33.8292273"/>
    <path fill="#FFF" fill-rule="nonzero" stroke="#FFF" d="M21.0705 16.8681818C21.0312273 17.1462273 21.5795455 17.8881818 22.2945 17.9873182 23.0082273 18.0868636 23.6191364 17.5070455 23.6578636 17.2292727 23.6965909 16.9512273 23.1489545 16.6449545 22.4337273 16.5454091 21.7195909 16.4457273 21.1084091 16.5908182 21.0706364 16.8681818L21.0705 16.8681818zM42.8101364 16.3013182C42.8488636 16.5793636 42.3012273 17.3213182 41.5861364 17.4204545 40.8718636 17.52 40.2609545 16.9401818 40.2218182 16.6624091 40.1840455 16.3843636 40.7318182 16.0780909 41.4462273 15.9785455 42.1606364 15.879 42.7714091 16.0239545 42.8101364 16.3014545L42.8101364 16.3013182z"/>
    <path stroke="#FFF" stroke-linecap="round" stroke-linejoin="round" stroke-width="2" d="M45.3649091,14.3770909 C45.4825909,16.5580909 44.8951364,18.0436364 44.8210909,20.3653636 C44.7114545,23.7400909 46.4300455,27.6027273 43.8405,31.4701364"/>
  </g>
</svg>
