<svg xmlns="http://www.w3.org/2000/svg" width="61" height="64" viewBox="0 0 61 64">
  <path fill="#F60" d="M59.4675899,25.9718188 L40.5614047,25.9718188 C39.0494649,25.791459 37.8981711,24.4595709 37.8981711,22.8918275 L37.8981711,3.05224367 C37.8981711,1.35963581 36.524941,0 34.846549,0 L28.2300779,0 C26.5378147,0 25.1784559,1.37350965 25.1784559,3.05224367 L25.1784559,23.099935 C25.0952298,24.6121829 23.846839,25.8330804 22.34877,25.9718188 L17.3968199,25.9718188 C15.9403639,25.791459 14.8168122,24.5705615 14.7197152,23.099935 L14.7197152,3.05224367 C14.7197152,1.35963581 13.3464853,0 11.6680932,0 L5.05162196,0 C3.35935887,0 2,1.37350965 2,3.05224367 L2,29.0240625 L2,60.9477562 C2,62.6403641 3.37322988,64 5.05162196,64 L11.6680932,64 L28.2300779,64 L34.846549,64 L59.4814607,64 C61.1737238,64 62.5330828,62.6264902 62.5330828,60.9477562 L62.5330828,29.0240625 C62.5192117,27.3314546 61.159853,25.9718188 59.4675899,25.9718188 Z M50.7565962,47.8647301 C50.7565962,49.5573379 49.3833664,50.9169738 47.7049744,50.9169738 L41.088503,50.9169738 C39.3962399,50.9169738 38.0368811,49.5434641 38.0368811,47.8647301 L38.0368811,41.6215044 C38.0368811,39.9288966 39.410111,38.5692607 41.088503,38.5692607 L47.7049744,38.5692607 C49.3972375,38.5692607 50.7565962,39.9427704 50.7565962,41.6215044 L50.7565962,47.8647301 Z" transform="translate(-2)"/>
</svg>
