<svg xmlns="http://www.w3.org/2000/svg" width="64" height="57" viewBox="0 0 64 57">
  <g fill="#61DAFB" fill-rule="evenodd">
    <path fill-rule="nonzero" d="M63.9089431,28.4227642 C63.9089431,24.195122 58.6146341,20.1886179 50.497561,17.704065 C52.3707317,9.43089431 51.5382114,2.84878049 47.8699187,0.741463415 C47.0243902,0.247154472 46.0357724,0.0130081301 44.9560976,0.0130081301 L44.9560976,2.91382114 C45.5544715,2.91382114 46.0357724,3.03089431 46.4390244,3.25203252 C48.2081301,4.26666667 48.9756098,8.1300813 48.3772358,13.099187 C48.2341463,14.3219512 48,15.6097561 47.7138211,16.9235772 C45.1642276,16.299187 42.3804878,15.8178862 39.4536585,15.5056911 C37.697561,13.099187 35.8764228,10.9138211 34.0422764,9.00162602 C38.2829268,5.0601626 42.2634146,2.90081301 44.9691057,2.90081301 L44.9691057,0 C44.9691057,0 44.9691057,0 44.9691057,0 C41.3918699,0 36.7089431,2.5495935 31.9739837,6.97235772 C27.2390244,2.57560976 22.5560976,0.0520325203 18.9788618,0.0520325203 L18.9788618,2.95284553 C21.6715447,2.95284553 25.6650407,5.09918699 29.9056911,9.01463415 C28.0845528,10.9268293 26.2634146,13.099187 24.5333333,15.5056911 C21.5934959,15.8178862 18.8097561,16.299187 16.2601626,16.9365854 C15.9609756,15.6357724 15.7398374,14.3739837 15.5837398,13.1642276 C14.9723577,8.19512195 15.7268293,4.33170732 17.4829268,3.30406504 C17.8731707,3.0699187 18.3804878,2.96585366 18.9788618,2.96585366 L18.9788618,0.0650406504 C18.9788618,0.0650406504 18.9788618,0.0650406504 18.9788618,0.0650406504 C17.8861789,0.0650406504 16.897561,0.299186992 16.0390244,0.793495935 C12.3837398,2.90081301 11.5642276,9.4699187 13.4504065,17.7170732 C5.35934959,20.2146341 0.0910569106,24.2081301 0.0910569106,28.4227642 C0.0910569106,32.6504065 5.38536585,36.6569106 13.502439,39.1414634 C11.6292683,47.4146341 12.4617886,53.996748 16.1300813,56.104065 C16.9756098,56.598374 17.9642276,56.8325203 19.0569106,56.8325203 C22.6341463,56.8325203 27.3170732,54.2829268 32.0520325,49.8601626 C36.7869919,54.2569106 41.4699187,56.7804878 45.0471545,56.7804878 C46.1398374,56.7804878 47.1284553,56.5463415 47.9869919,56.0520325 C51.6422764,53.9447154 52.4617886,47.3756098 50.5756098,39.1284553 C58.6406504,36.6439024 63.9089431,32.6373984 63.9089431,28.4227642 Z M46.9723577,19.7463415 C46.4910569,21.4243902 45.8926829,23.1544715 45.2162602,24.8845528 C44.6829268,23.8439024 44.1235772,22.803252 43.5121951,21.7626016 C42.9138211,20.7219512 42.2764228,19.7073171 41.6390244,18.7186992 C43.4861789,18.9918699 45.2682927,19.3300813 46.9723577,19.7463415 Z M41.0146341,33.6 C40,35.3560976 38.9593496,37.0211382 37.8796748,38.5691057 C35.9414634,38.7382114 33.9772358,38.8292683 32,38.8292683 C30.0357724,38.8292683 28.0715447,38.7382114 26.1463415,38.5821138 C25.0666667,37.0341463 24.0130081,35.3821138 22.998374,33.6390244 C22.0097561,31.9349593 21.1121951,30.204878 20.2926829,28.4617886 C21.099187,26.7186992 22.0097561,24.9756098 22.9853659,23.2715447 C24,21.5154472 25.0406504,19.8504065 26.1203252,18.302439 C28.0585366,18.1333333 30.0227642,18.0422764 32,18.0422764 C33.9642276,18.0422764 35.9284553,18.1333333 37.8536585,18.2894309 C38.9333333,19.8373984 39.9869919,21.4894309 41.001626,23.2325203 C41.9902439,24.9365854 42.8878049,26.6666667 43.7073171,28.4097561 C42.8878049,30.1528455 41.9902439,31.895935 41.0146341,33.6 Z M45.2162602,31.9089431 C45.9186992,33.6520325 46.5170732,35.395122 47.0113821,37.0861789 C45.3073171,37.502439 43.5121951,37.8536585 41.6520325,38.1268293 C42.2894309,37.1252033 42.9268293,36.097561 43.5252033,35.0439024 C44.1235772,34.003252 44.6829268,32.9495935 45.2162602,31.9089431 Z M32.0260163,45.7886179 C30.8162602,44.5398374 29.6065041,43.1479675 28.4097561,41.6260163 C29.5804878,41.6780488 30.7772358,41.7170732 31.9869919,41.7170732 C33.2097561,41.7170732 34.4195122,41.6910569 35.603252,41.6260163 C34.4325203,43.1479675 33.2227642,44.5398374 32.0260163,45.7886179 Z M22.3479675,38.1268293 C20.500813,37.8536585 18.7186992,37.5154472 17.0146341,37.099187 C17.495935,35.4211382 18.0943089,33.6910569 18.7707317,31.9609756 C19.304065,33.001626 19.8634146,34.0422764 20.4747967,35.0829268 C21.0861789,36.1235772 21.7105691,37.1382114 22.3479675,38.1268293 Z M31.9609756,11.0569106 C33.1707317,12.3056911 34.3804878,13.697561 35.5772358,15.2195122 C34.4065041,15.1674797 33.2097561,15.1284553 32,15.1284553 C30.7772358,15.1284553 29.5674797,15.1544715 28.3837398,15.2195122 C29.5544715,13.697561 30.7642276,12.3056911 31.9609756,11.0569106 Z M22.3349593,18.7186992 C21.697561,19.7203252 21.0601626,20.7479675 20.4617886,21.801626 C19.8634146,22.8422764 19.304065,23.8829268 18.7707317,24.9235772 C18.0682927,23.1804878 17.4699187,21.4373984 16.9756098,19.7463415 C18.6796748,19.3430894 20.4747967,18.9918699 22.3349593,18.7186992 Z M10.5626016,35.004878 C5.95772358,33.0406504 2.97886179,30.4650407 2.97886179,28.4227642 C2.97886179,26.3804878 5.95772358,23.7918699 10.5626016,21.8406504 C11.6813008,21.3593496 12.904065,20.9300813 14.1658537,20.5268293 C14.9073171,23.0764228 15.8829268,25.7300813 17.0926829,28.4487805 C15.895935,31.1544715 14.9333333,33.795122 14.204878,36.3317073 C12.9170732,35.9284553 11.6943089,35.4861789 10.5626016,35.004878 Z M17.5609756,53.5934959 C15.7918699,52.5788618 15.0243902,48.7154472 15.6227642,43.7463415 C15.7658537,42.5235772 16,41.2357724 16.2861789,39.9219512 C18.8357724,40.5463415 21.6195122,41.0276423 24.5463415,41.3398374 C26.302439,43.7463415 28.1235772,45.9317073 29.9577236,47.8439024 C25.7170732,51.7853659 21.7365854,53.9447154 19.0308943,53.9447154 C18.4455285,53.9317073 17.9512195,53.8146341 17.5609756,53.5934959 Z M48.4162602,43.6813008 C49.0276423,48.6504065 48.2731707,52.5138211 46.5170732,53.5414634 C46.1268293,53.7756098 45.6195122,53.8796748 45.0211382,53.8796748 C42.3284553,53.8796748 38.3349593,51.7333333 34.0943089,47.8178862 C35.9154472,45.9056911 37.7365854,43.7333333 39.4666667,41.3268293 C42.4065041,41.0146341 45.1902439,40.5333333 47.7398374,39.895935 C48.0390244,41.2097561 48.2731707,42.4715447 48.4162602,43.6813008 Z M53.4243902,35.004878 C52.3056911,35.4861789 51.0829268,35.9154472 49.8211382,36.3186992 C49.0796748,33.7691057 48.104065,31.1154472 46.8943089,28.396748 C48.0910569,25.6910569 49.0536585,23.0504065 49.7821138,20.5138211 C51.0699187,20.9170732 52.2926829,21.3593496 53.4373984,21.8406504 C58.0422764,23.804878 61.0211382,26.3804878 61.0211382,28.4227642 C61.0081301,30.4650407 58.0292683,33.0536585 53.4243902,35.004878 Z"/>
    <circle cx="31.987" cy="28.423" r="5.945" fill-rule="nonzero"/>
  </g>
</svg>
