<svg xmlns="http://www.w3.org/2000/svg" width="64" height="61" viewBox="0 0 64 61">
  <g fill="#764ABC" transform="translate(0 -2)">
    <path d="M44.2329114,44.4506329 C46.5822785,44.2075949 48.364557,42.1822785 48.2835443,39.7518987 C48.2025316,37.321519 46.1772152,35.3772152 43.7468354,35.3772152 L43.5848101,35.3772152 C41.0734177,35.4582278 39.1291139,37.564557 39.2101266,40.0759494 C39.2911392,41.2911392 39.7772152,42.3443038 40.5063291,43.0734177 C37.7518987,48.5012658 33.5392405,52.4708861 27.2202532,55.7924051 C22.9265823,58.0607595 18.4708861,58.8708861 14.0151899,58.3037975 C10.3696203,57.8177215 7.53417722,56.1974684 5.75189873,53.5240506 C3.15949367,49.5544304 2.9164557,45.2607595 5.10379747,40.9670886 C6.64303797,37.8886076 9.07341772,35.6202532 10.6126582,34.4860759 C10.2886076,33.4329114 9.80253165,31.6506329 9.55949367,30.3544304 C-2.18734177,38.8607595 -0.972151899,50.364557 2.59240506,55.7924051 C5.26582278,59.843038 10.6936709,62.3544304 16.6886076,62.3544304 C18.3088608,62.3544304 19.9291139,62.1924051 21.5493671,61.7873418 C31.9189873,59.7620253 39.7772152,53.6050633 44.2329114,44.4506329 Z"/>
    <path d="M58.4911392,34.4050633 C52.3341772,27.1949367 43.2607595,23.2253165 32.8911392,23.2253165 L31.5949367,23.2253165 C30.8658228,21.7670886 29.3265823,20.7949367 27.6253165,20.7949367 L27.4632911,20.7949367 C24.9518987,20.8759494 23.0075949,22.9822785 23.0886076,25.4936709 C23.1696203,27.9240506 25.1949367,29.8683544 27.6253165,29.8683544 L27.7873418,29.8683544 C29.5696203,29.7873418 31.1088608,28.6531646 31.756962,27.1139241 L33.2151899,27.1139241 C39.3721519,27.1139241 45.2050633,28.8962025 50.4708861,32.3797468 C54.521519,35.0531646 57.4379747,38.5367089 59.0582278,42.7493671 C60.435443,46.1518987 60.3544304,49.4734177 58.8962025,52.3088608 C56.6278481,56.6025316 52.8202532,58.9518987 47.7974684,58.9518987 C44.556962,58.9518987 41.478481,57.9797468 39.8582278,57.2506329 C38.9670886,58.0607595 37.3468354,59.356962 36.2126582,60.1670886 C39.6962025,61.7873418 43.2607595,62.678481 46.6632911,62.678481 C54.4405063,62.678481 60.1924051,58.3848101 62.3797468,54.0911392 C64.7291139,49.3924051 64.5670886,41.2911392 58.4911392,34.4050633 Z"/>
    <path d="M17.3367089,45.8278481 C17.4177215,48.2582278 19.443038,50.2025316 21.8734177,50.2025316 L22.035443,50.2025316 C24.5468354,50.121519 26.4911392,48.0151899 26.4101266,45.5037975 C26.3291139,43.0734177 24.3037975,41.1291139 21.8734177,41.1291139 L21.7113924,41.1291139 C21.5493671,41.1291139 21.3063291,41.1291139 21.1443038,41.2101266 C17.8227848,35.7012658 16.4455696,29.7063291 16.9316456,23.2253165 C17.2556962,18.364557 18.8759494,14.1518987 21.7113924,10.6683544 C24.0607595,7.67088608 28.5974684,6.21265823 31.6759494,6.13164557 C40.2632911,5.96962025 43.9088608,16.6632911 44.1518987,20.956962 C45.2050633,21.2 46.9873418,21.7670886 48.2025316,22.1721519 C47.2303797,9.04810127 39.1291139,2.24303797 31.3518987,2.24303797 C24.0607595,2.24303797 17.3367089,7.50886076 14.6632911,15.2860759 C10.9367089,25.6556962 13.3670886,35.6202532 17.9037975,43.478481 C17.4987342,44.0455696 17.2556962,44.9367089 17.3367089,45.8278481 Z"/>
  </g>
</svg>
