<svg xmlns="http://www.w3.org/2000/svg" width="63" height="19" viewBox="0 0 63 19">
  <g fill="none" fill-rule="evenodd" transform="translate(0 -6)">
    <path fill="#909090" d="M2.86230469 18.3632812C2.86230469 17.7968722 2.64909067 17.3639338 2.22265625 17.0644531 1.79622183 16.7649725 1.17611084 16.6152344.362304688 16.6152344L.362304688 14.28125C1.18262129 14.28125 1.80435986 14.1380223 2.22753906 13.8515625 2.65071826 13.5651027 2.86230469 13.1549506 2.86230469 12.6210938L2.86230469 9.4375C2.86230469 8.44140127 3.17805674 7.73991089 3.80957031 7.33300781 4.44108389 6.92610474 5.55109883 6.72265625 7.13964844 6.72265625L7.13964844 8.91992188C6.49511396 8.93945322 6.05078247 9.0631499 5.80664062 9.29101562 5.56249878 9.51888135 5.44042969 9.85416445 5.44042969 10.296875L5.44042969 13.2167969C5.40136699 14.4407613 4.63965586 15.1634104 3.15527344 15.3847656L3.15527344 15.5019531C4.67871855 15.7298188 5.44042969 16.4199161 5.44042969 17.5722656L5.44042969 20.5800781C5.44042969 21.0227887 5.56087119 21.3580718 5.80175781 21.5859375 6.04264443 21.8138032 6.48860352 21.9374999 7.13964844 21.9570312L7.13964844 24.1640625C5.55109883 24.1640625 4.44108389 23.960614 3.80957031 23.5537109 3.17805674 23.1468079 2.86230469 22.4420623 2.86230469 21.4394531L2.86230469 18.3632812zM60.1376953 21.4394531C60.1376953 22.1686234 60.0042331 22.7187481 59.7373047 23.0898438 59.4703763 23.4609394 59.0293 23.7327465 58.4140625 23.9052734 57.798825 24.0778003 56.9475966 24.1640625 55.8603516 24.1640625L55.8603516 21.9570312C56.504886 21.9440104 56.9492175 21.826824 57.1933594 21.6054688 57.4375012 21.3841135 57.5595703 21.04232 57.5595703 20.5800781L57.5595703 17.5527344C57.5595703 16.9928357 57.7516257 16.5387387 58.1357422 16.1904297 58.5198587 15.8421207 59.0862593 15.6126308 59.8349609 15.5019531L59.8349609 15.3847656C58.357089 15.1634104 57.598633 14.4407613 57.5595703 13.2167969L57.5595703 10.296875C57.5595703 9.84114355 57.4391288 9.50260527 57.1982422 9.28125 56.9573556 9.05989473 56.5113965 8.93945322 55.8603516 8.91992188L55.8603516 6.72265625C56.9475966 6.72265625 57.8004526 6.80891841 58.4189453 6.98144531 59.037438 7.15397222 59.4785143 7.42740698 59.7421875 7.80175781 60.0058607 8.17610864 60.1376953 8.72135059 60.1376953 9.4375L60.1376953 12.640625C60.1376953 13.1875027 60.3378886 13.5976549 60.7382812 13.8710938 61.1386739 14.1445326 61.7718056 14.28125 62.6376953 14.28125L62.6376953 16.6152344C61.8238892 16.6152344 61.2037782 16.7486966 60.7773438 17.015625 60.3509093 17.2825534 60.1376953 17.7317677 60.1376953 18.3632812L60.1376953 21.4394531z"/>
    <path fill="#FFF" fill-opacity=".9" d="M14.690918,14.8544922 L15.5698242,14.8544922 C16.4311567,14.8544922 17.0668925,14.7109389 17.4770508,14.4238281 C17.8872091,14.1367173 18.0922852,13.68555 18.0922852,13.0703125 C18.0922852,12.4609345 17.8828146,12.027345 17.4638672,11.7695312 C17.0449198,11.5117175 16.3960005,11.3828125 15.5170898,11.3828125 L14.690918,11.3828125 L14.690918,14.8544922 Z M14.690918,17.0693359 L14.690918,22 L11.9663086,22 L11.9663086,9.15039062 L15.7104492,9.15039062 C17.4565517,9.15039062 18.748531,9.46825854 19.5864258,10.1040039 C20.4243206,10.7397493 20.8432617,11.7050717 20.8432617,13 C20.8432617,13.7558632 20.635256,14.4282197 20.2192383,15.0170898 C19.8032206,15.60596 19.2143593,16.0673811 18.4526367,16.4013672 C20.3862401,19.2900535 21.6459932,21.1562458 22.2319336,22 L19.2084961,22 L16.1411133,17.0693359 L14.690918,17.0693359 Z M31.2495117,22 L23.8491211,22 L23.8491211,9.15039062 L31.2495117,9.15039062 L31.2495117,11.3828125 L26.5737305,11.3828125 L26.5737305,14.2041016 L30.9243164,14.2041016 L30.9243164,16.4365234 L26.5737305,16.4365234 L26.5737305,19.75 L31.2495117,19.75 L31.2495117,22 Z M41.5151367,18.4316406 C41.5151367,19.5918027 41.0976604,20.505856 40.2626953,21.1738281 C39.4277302,21.8418002 38.2661207,22.1757812 36.777832,22.1757812 C35.4067314,22.1757812 34.1938529,21.9179713 33.1391602,21.4023438 L33.1391602,18.8710938 C34.006352,19.2578144 34.7402314,19.5302726 35.3408203,19.6884766 C35.9414093,19.8466805 36.4907202,19.9257812 36.9887695,19.9257812 C37.5864288,19.9257812 38.0449203,19.8115246 38.3642578,19.5830078 C38.6835953,19.354491 38.8432617,19.0146507 38.8432617,18.5634766 C38.8432617,18.3115222 38.7729499,18.0874033 38.6323242,17.8911133 C38.4916985,17.6948232 38.2851576,17.5058603 38.0126953,17.3242188 C37.740233,17.1425772 37.1850628,16.8525411 36.347168,16.4541016 C35.5620078,16.0849591 34.9731465,15.7304704 34.5805664,15.390625 C34.1879863,15.0507796 33.8745129,14.6552757 33.6401367,14.2041016 C33.4057605,13.7529274 33.2885742,13.225589 33.2885742,12.6220703 C33.2885742,11.4853459 33.6738243,10.5918001 34.4443359,9.94140625 C35.2148476,9.29101237 36.2797784,8.96582031 37.6391602,8.96582031 C38.3071322,8.96582031 38.9443329,9.04492108 39.5507812,9.203125 C40.1572296,9.36132892 40.7915006,9.58398294 41.4536133,9.87109375 L40.574707,11.9892578 C39.8891567,11.7080064 39.3222679,11.5117193 38.8740234,11.4003906 C38.425779,11.2890619 37.9848654,11.2333984 37.5512695,11.2333984 C37.035642,11.2333984 36.6401381,11.3535144 36.3647461,11.59375 C36.0893541,11.8339856 35.9516602,12.147459 35.9516602,12.5341797 C35.9516602,12.7744153 36.0073237,12.9838858 36.1186523,13.1625977 C36.229981,13.3413095 36.4072253,13.5141593 36.6503906,13.6811523 C36.8935559,13.8481454 37.4692337,14.1484353 38.3774414,14.5820312 C39.5786193,15.1562529 40.4018532,15.7319307 40.847168,16.309082 C41.2924827,16.8862334 41.5151367,17.5937458 41.5151367,18.4316406 Z M48.8012695,22 L46.0766602,22 L46.0766602,11.4179688 L42.5874023,11.4179688 L42.5874023,9.15039062 L52.2905273,9.15039062 L52.2905273,11.4179688 L48.8012695,11.4179688 L48.8012695,22 Z"/>
  </g>
</svg>
