<svg xmlns="http://www.w3.org/2000/svg" width="63" height="56" viewBox="0 0 63 56">
  <path fill="#FA7343" d="M57.7454545,44.2909091 C57.8909091,44 57.8909091,43.7090909 58.0363636,43.4181818 C61.5272727,29.7454545 53.2363636,13.7454545 38.9818182,5.30909091 C45.2363636,13.7454545 47.7090909,23.7818182 45.5272727,32.8 C45.3818182,33.5272727 45.0909091,34.4 44.8,35.1272727 C44.5090909,34.9818182 44.0727273,34.6909091 43.6363636,34.4 C43.6363636,34.4 29.5272727,25.6727273 14.4,10.4 C13.9636364,9.96363636 22.5454545,22.6181818 32.1454545,32.6545455 C27.6363636,30.0363636 14.8363636,20.8727273 6.83636364,13.4545455 C7.70909091,15.0545455 9.01818182,16.6545455 10.3272727,18.2545455 C17.0181818,26.8363636 25.7454545,37.3090909 36.2181818,45.3090909 C28.8,49.8181818 18.4727273,50.1090909 8,45.3090909 C5.38181818,44.1454545 3.2,42.6909091 0.727272727,40.9454545 C5.09090909,47.7818182 11.9272727,54.0363636 20.0727273,57.3818182 C29.8181818,61.6 39.7090909,61.3090909 46.8363636,57.3818182 C46.8363636,57.3818182 46.8363636,57.3818182 46.9818182,57.3818182 C47.2727273,57.2363636 47.5636364,57.0909091 47.8545455,56.8 C51.3454545,55.0545455 58.1818182,53.1636364 61.9636364,60.4363636 C62.9818182,62.4727273 64.8727273,53.0181818 57.7454545,44.2909091 Z" transform="translate(0 -5)"/>
</svg>
