<svg xmlns="http://www.w3.org/2000/svg" width="41" height="15" viewBox="0 0 41 15">
  <path fill="#FFF" fill-opacity=".9" fill-rule="evenodd" d="M18.7089844,40 L15.6816406,40 L15.6816406,28.2421875 L11.8046875,28.2421875 L11.8046875,25.7226562 L22.5859375,25.7226562 L22.5859375,28.2421875 L18.7089844,28.2421875 L18.7089844,40 Z M36.6289062,32.7246094 C36.6289062,35.0748815 35.9599676,36.8749938 34.6220703,38.125 C33.284173,39.3750062 31.3522262,40 28.8261719,40 L24.7832031,40 L24.7832031,25.7226562 L29.265625,25.7226562 C31.5963658,25.7226562 33.4062436,26.3378845 34.6953125,27.5683594 C35.9843814,28.7988343 36.6289062,30.5175671 36.6289062,32.7246094 Z M33.484375,32.8027344 C33.484375,29.7363128 32.1302219,28.203125 29.421875,28.203125 L27.8105469,28.203125 L27.8105469,37.5 L29.109375,37.5 C32.0260562,37.5 33.484375,35.9342604 33.484375,32.8027344 Z M51.4335938,32.7246094 C51.4335938,35.0748815 50.7646551,36.8749938 49.4267578,38.125 C48.0888605,39.3750062 46.1569137,40 43.6308594,40 L39.5878906,40 L39.5878906,25.7226562 L44.0703125,25.7226562 C46.4010533,25.7226562 48.2109311,26.3378845 49.5,27.5683594 C50.7890689,28.7988343 51.4335938,30.5175671 51.4335938,32.7246094 Z M48.2890625,32.8027344 C48.2890625,29.7363128 46.9349094,28.203125 44.2265625,28.203125 L42.6152344,28.203125 L42.6152344,37.5 L43.9140625,37.5 C46.8307438,37.5 48.2890625,35.9342604 48.2890625,32.8027344 Z" transform="translate(-11 -25)"/>
</svg>
