<svg xmlns="http://www.w3.org/2000/svg" xmlns:xlink="http://www.w3.org/1999/xlink" width="64" height="64" viewBox="0 0 64 64">
  <defs>
    <path id="trello-a" d="M12.1590528,8.32 L24.0009472,8.32 C26.1205664,8.32 27.84,10.038016 27.84,12.157312 L27.84,48.4826752 C27.84,50.6019072 26.1211968,52.32 24.0009472,52.32 L12.1590528,52.32 C10.0394336,52.32 8.32,50.6019712 8.32,48.4826752 L8.32,12.157312 C8.32,10.03808 10.0388032,8.32 12.1590528,8.32 Z"/>
  </defs>
  <g fill="none" fill-rule="evenodd">
    <path fill="#0079BF" d="M8.0004416,0 L55.999552,0 C60.416192,0 64,3.58192 64,8.000448 L64,55.9995584 C64,60.4161792 60.41808,64 55.999552,64 L8.0004416,64 C3.5838208,64 0,60.41808 0,55.9995584 L0,8.000448 C0,3.583808 3.58192,0 8.0004416,0 Z"/>
    <path fill="#FFF" d="M39.99904,8.32 L51.84096,8.32 C53.960576,8.32 55.68,10.040064 55.68,12.161888 L55.68,32.4781088 C55.68,34.600128 53.961184,36.32 51.84096,36.32 L39.99904,36.32 C37.879424,36.32 36.16,34.5999264 36.16,32.4781088 L36.16,12.161888 C36.16,10.039872 37.878816,8.32 39.99904,8.32 Z"/>
    <use fill="#FFF" xlink:href="#trello-a"/>
  </g>
</svg>
