<svg xmlns="http://www.w3.org/2000/svg" xmlns:xlink="http://www.w3.org/1999/xlink" width="64" height="64" viewBox="0 0 64 64">
  <defs>
    <path id="unreal-a" d="M45.5192531,41.454231 C44.3798329,41.44857 43.9326192,40.7785356 43.9326192,40.7785356 C43.8711351,40.4673415 43.7649926,35.9706732 43.7272531,31.4716462 C43.68857,26.8104963 43.7225356,22.145887 43.9560491,22.1318919 C45.2698575,19.665769 49.4619361,14.6929533 49.4619361,14.6929533 C41.6333366,16.236344 37.3638919,21.3660934 37.3638919,21.3660934 C36.1040197,20.372914 33.5317543,20.5383391 33.5317543,20.5383391 C34.7356462,21.2006683 35.9400098,23.1310467 35.9400098,24.7299459 L35.9400098,40.4478428 C35.9400098,40.4478428 33.3125504,42.7634791 31.2868796,42.7634791 C30.0894349,42.7634791 29.351312,42.108226 28.947656,41.5723243 C28.6686978,41.2013759 28.5495037,40.8882948 28.5495037,40.8882948 L28.5495037,21.4758526 C28.3010516,21.6555872 27.9481867,21.805602 27.585258,21.8034005 C27.1548698,21.8016708 26.7098575,21.585769 26.407312,20.9512727 C26.1789877,20.4738673 26.0318034,19.75886 26.0318034,18.7185061 C26.0318034,15.1343489 30.0828305,12.7624177 30.0828305,12.7624177 C24.9368845,14.1411695 20.1743096,16.7884423 13.824,24.0680885 C7.47400491,31.3482064 8.6782113,37.3593317 8.6782113,37.3593317 C8.6782113,37.3593317 10.4299558,33.2227617 14.6451499,28.8662015 C16.6417297,26.8026339 18.1343292,26.1124717 19.1528256,26.1099558 C20.2850123,26.1066536 20.8311351,26.9534349 20.8311351,27.708226 L20.8311351,42.4879803 C20.8311351,43.9456708 19.8914201,44.2642555 19.0254545,44.2485307 C18.286231,44.2346929 17.6014152,43.9777494 17.6014152,43.9777494 C21.9258968,50.2643735 32.2723538,51.1468501 32.2723538,51.1468501 L36.8160393,46.293543 L36.9224963,46.3849042 L41.0857985,49.9328943 C48.6950369,45.4112236 52.3633219,37.0281671 52.3633219,37.0281671 C48.9684914,40.6230172 46.8038133,41.4609926 45.5192531,41.454231 Z"/>
  </defs>
  <g fill="none" fill-rule="evenodd">
    <path fill="#FFFFFE" d="M31.6614447,0.148756757 C14.2133464,0.148756757 0.0691891892,14.4130516 0.0691891892,32.0091204 C0.0691891892,49.6050319 14.2133464,63.8691695 31.6614447,63.8691695 C49.1093857,63.8691695 63.253543,49.6050319 63.253543,32.0091204 C63.253543,14.4130516 49.1093857,0.148756757 31.6614447,0.148756757 M31.6614447,1.55093857 C39.7284324,1.55093857 47.3128256,4.71917445 53.0171597,10.471941 C58.7216511,16.2245504 61.8631548,23.8734152 61.8631548,32.0091204 C61.8631548,40.1446683 58.7216511,47.7933759 53.0171597,53.5462998 C47.3128256,59.2989091 39.7284324,62.467145 31.6614447,62.467145 C23.5941425,62.467145 16.0097494,59.2989091 10.3055725,53.5462998 C4.60108108,47.7933759 1.4595774,40.1446683 1.4595774,32.0091204 C1.4595774,23.8734152 4.60108108,16.2245504 10.3055725,10.471941 C16.0097494,4.71917445 23.5941425,1.55093857 31.6614447,1.55093857"/>
    <use fill="#FFF" xlink:href="#unreal-a"/>
  </g>
</svg>
