<svg width="30" height="26" xmlns="http://www.w3.org/2000/svg"><g fill="none" fill-rule="evenodd"><path d="M-9-11h48v48H-9z"/><path d="M9.434 25.19c11.321 0 17.513-9.378 17.513-17.512 0-.266 0-.532-.018-.796A12.523 12.523 0 0 0 30 3.696a12.286 12.286 0 0 1-3.535.969A6.176 6.176 0 0 0 29.17 1.26a12.335 12.335 0 0 1-3.909 1.494 6.16 6.16 0 0 0-10.489 5.614 17.474 17.474 0 0 1-12.685-6.43 6.16 6.16 0 0 0 1.906 8.216 6.11 6.11 0 0 1-2.794-.77v.077a6.157 6.157 0 0 0 4.938 6.034 6.145 6.145 0 0 1-2.78.105 6.162 6.162 0 0 0 5.751 4.275A12.35 12.35 0 0 1 0 22.426a17.425 17.425 0 0 0 9.434 2.76" fill-opacity=".7" fill="#FFF" fill-rule="nonzero"/></g></svg>