<svg xmlns="http://www.w3.org/2000/svg" width="56" height="64" viewBox="0 0 56 64">
  <g fill="none" fill-rule="evenodd">
    <polygon fill="#264DE4" fill-rule="nonzero" points="55.741 .804 50.677 57.536 27.913 63.847 5.212 57.545 .153 .804"/>
    <polygon fill="#2965F1" fill-rule="nonzero" points="46.342 53.923 50.669 5.443 27.947 5.443 27.947 59.023"/>
    <polygon fill="#FFF" fill-rule="nonzero" points="36.493 33.447 35.685 42.472 27.923 44.567 27.923 51.807 42.19 47.853 42.294 46.677 43.93 28.356 44.099 26.488 45.356 12.402 27.923 12.402 27.923 19.361 37.729 19.361 37.096 26.488 27.923 26.488 27.923 33.447"/>
    <path fill="#EBEBEB" fill-rule="nonzero" d="M11.7505609,26.4876097 L27.9472924,26.4876097 L27.9472924,33.4465801 L12.3742784,33.4465801 L11.7505609,26.4876097 Z M27.9472924,12.4023227 L27.9472924,19.3614463 L11.1299084,19.3614463 L10.4973026,12.4023227 L27.9232326,12.4023227 L27.9472924,12.4023227 Z M27.9472924,51.8013433 L27.9152637,51.8102317 L13.6601784,47.8529207 L12.6852176,36.9262185 L15.9049482,36.9262185 L19.6710063,36.9262185 L20.1664556,42.4763843 L27.9167962,44.5691326 L27.9472924,44.5610105 L27.9472924,51.8013433 Z"/>
  </g>
</svg>
