<svg xmlns="http://www.w3.org/2000/svg" width="64" height="64" viewBox="0 0 64 64">
  <g fill="#0075FF" fill-rule="evenodd">
    <path fill-rule="nonzero" d="M31.9998238,63.1111111 L31.9998238,50.8899155 C45.1519363,50.8899155 55.3211342,38.0532039 50.3004502,24.4187803 C48.440406,19.3686523 44.3549323,15.3407987 39.2337948,13.5076413 C25.4087547,8.56112372 12.3952899,18.5860866 12.3933029,31.5531892 C12.3933029,31.5531892 12.3919782,31.5562623 12.390212,31.5562623 L0,31.5562623 C0,10.8938939 20.2423579,-5.19425189 42.1988265,1.56478885 C51.7935633,4.51878227 59.4178676,12.0373398 62.4133666,21.4988115 C69.2669392,43.1503078 52.9533036,63.1111111 31.9998238,63.1111111"/>
    <path d="M31.9995553,50.6666667 L19.5555556,50.6666667 L19.5555556,38.2246886 C19.5555556,38.2246886 19.5566673,38.2222222 19.5580014,38.2222222 L31.9979989,38.2222222 C31.999333,38.2222222 32,38.2235675 32,38.2235675 L32,50.6666667 L31.9995553,50.6666667 Z"/>
    <polygon points="19.554 60.444 9.781 60.444 9.778 60.442 9.778 50.667 19.556 50.667 19.556 60.442"/>
    <path d="M9.77777778,50.6666667 L1.78354546,50.6666667 C1.78021795,50.6666667 1.77777778,50.6639822 1.77777778,50.6639822 L1.77777778,42.6722594 C1.77777778,42.6722594 1.78021795,42.6666667 1.78354546,42.6666667 L9.77178826,42.6666667 C9.77511577,42.6666667 9.77777778,42.6691274 9.77777778,42.6691274 L9.77777778,50.6666667 Z"/>
  </g>
</svg>
