<svg xmlns="http://www.w3.org/2000/svg" xmlns:xlink="http://www.w3.org/1999/xlink" width="64" height="45" viewBox="0 0 64 45">
  <defs>
    <path id="docker-a" d="M11.4414345,0.178317241 C14.5438897,5.26388966 19.1677793,7.04617931 21.1279448,7.57892414 C10.3936,10.8627862 3.88193103,5.11161379 0.227310345,2.06388966 C1.32369655,2.11288276 6.56948966,1.86835862 11.4414345,0.178317241 Z"/>
    <polygon id="docker-c" points="0 .248 63.624 .248 63.624 44.553 0 44.553"/>
  </defs>
  <g fill="none" fill-rule="evenodd">
    <polygon fill="#099CEC" points="12.75 21.747 19.319 21.747 19.319 15.775 12.75 15.775"/>
    <polygon fill="#099CEC" points="4.986 21.747 11.555 21.747 11.555 15.775 4.986 15.775"/>
    <polygon fill="#099CEC" points="20.513 21.747 27.081 21.747 27.081 15.775 20.513 15.775"/>
    <polygon fill="#099CEC" points="28.276 21.747 34.845 21.747 34.845 15.775 28.276 15.775"/>
    <polygon fill="#099CEC" points="36.039 21.747 42.608 21.747 42.608 15.775 36.039 15.775"/>
    <polygon fill="#099CEC" points="12.75 14.581 19.319 14.581 19.319 8.609 12.75 8.609"/>
    <polygon fill="#099CEC" points="20.513 14.581 27.081 14.581 27.081 8.609 20.513 8.609"/>
    <polygon fill="#099CEC" points="28.276 14.581 34.845 14.581 34.845 8.609 28.276 8.609"/>
    <polygon fill="#099CEC" points="28.276 7.415 34.845 7.415 34.845 1.443 28.276 1.443"/>
    <path fill="#099CEC" d="M62.1735724,17.6185379 C60.8251586,16.7110621 57.2830897,16.323531 54.7076414,17.0173793 C54.5694897,14.4520828 53.2462345,12.2902069 50.8261517,10.4041931 L49.9305931,9.80347586 L49.3329655,10.7047724 C48.1597793,12.4861793 47.6654345,14.8594759 47.8406621,17.0173793 C47.9783724,18.3463724 48.4409379,19.8408828 49.3329655,20.9249103 C48.6497103,21.456331 46.524469,22.4829793 43.6603586,22.4282483 L0.962648276,22.4282483 C0.203034483,26.9369379 1.50333793,44.0704 21.2660966,44.0704 C35.9379862,44.0704 47.9933793,37.4722207 53.513269,23.6305655 C55.3295448,23.6601379 60.1246897,23.9558621 62.4710621,19.4220138 C62.528,19.3460966 63.0682483,18.2196966 63.0682483,18.2196966 L62.1735724,17.6185379"/>
    <g transform="translate(5.297 35.752)">
      <mask id="docker-b" fill="#fff">
        <use xlink:href="#docker-a"/>
      </mask>
      <polygon fill="#FFF" points=".212 8.589 21.133 8.589 21.133 .168 .212 .168" mask="url(#docker-b)"/>
    </g>
    <path fill="#026FB6" d="M16.1937655,34.8777931 C13.8496,36.2156138 11.132469,36.9668414 8.25114483,36.9668414 C6.79106207,36.9668414 5.37688276,36.7730759 4.03111724,36.4093793 C4.88297931,37.8416552 4.88297931,37.8416552 4.88297931,37.8416552 C5.97274483,38.0566069 7.09826207,38.1696 8.25114483,38.1696 C11.3566897,38.1696 14.2530207,37.3579034 16.7759448,35.9300414 C16.5671724,35.5844414 16.3729655,35.2384 16.1937655,34.8777931"/>
    <path fill="#FFF" d="M20.7377655,34.0983172 C21.884469,34.0983172 22.8140138,33.1625931 22.8140138,32.0083862 C22.8140138,30.8541793 21.884469,29.9184552 20.7377655,29.9184552 C19.5910621,29.9184552 18.6615172,30.8541793 18.6615172,32.0083862 C18.6615172,33.1625931 19.5910621,34.0983172 20.7377655,34.0983172"/>
    <path fill="#4D5C64" d="M21.0502621,31.4213517 C21.0502621,31.2293517 21.1451586,31.0664828 21.2837517,30.9565793 C21.1208828,30.8722759 20.9390345,30.8201931 20.7435034,30.8201931 C20.0884966,30.8201931 19.5570759,31.3551448 19.5570759,32.0145655 C19.5570759,32.6739862 20.0884966,33.2089379 20.7435034,33.2089379 C21.3989517,33.2089379 21.929931,32.6739862 21.929931,32.0145655 L21.9233103,31.9461517 C21.8394483,31.990731 21.7485241,32.022069 21.6474483,32.022069 C21.3177379,32.022069 21.0502621,31.753269 21.0502621,31.4213517"/>
    <path fill="#F3F3F3" d="M61.9965793,17.5095172 C61.0736552,16.9864828 59.3937655,16.6625103 57.6591448,16.6625103 C56.6475034,16.6625103 55.6173241,16.7724138 54.7076414,17.0173793 C54.7049931,16.9630897 54.7014621,16.9092414 54.6974897,16.8553931 C55.517131,16.6391172 56.4581517,16.5420138 57.3974069,16.5420138 C59.2631172,16.5420138 61.1204414,16.9242483 61.9965793,17.5095172"/>
    <path fill="#F3F3F3" d="M24.2374621,43.8903172 C24.9463172,43.7455448 25.6750345,43.5601655 26.4244966,43.3306483 C25.5064276,43.081269 24.0039724,42.5573517 22.3470345,41.5488 C35.9962483,41.2164414 45.9917241,34.2104276 53.981131,17.6745931 L54.5293241,16.9021793 C54.5844966,16.8858483 54.6405517,16.8704 54.6974897,16.8553931 C54.7014621,16.9092414 54.7049931,16.9630897 54.7076414,17.0173793 C55.6173241,16.7724138 56.6475034,16.6625103 57.6591448,16.6625103 C59.3937655,16.6625103 61.0736552,16.9864828 61.9965793,17.5095172 C61.9979034,17.5104 61.999669,17.5112828 62.0014345,17.5126069 L62.9031724,18.1239172 L62.4489931,19.0852414 C60.3780414,23.2832 55.8808276,23.5983448 53.7758897,23.5983448 C53.6046345,23.5983448 53.449269,23.5965793 53.3124414,23.5943724 C48.1518345,36.374069 37.430731,42.9651862 24.2374621,43.8903172"/>
    <path fill="#0994E0" d="M24.2374621,43.8903172 C24.9463172,43.7455448 25.6750345,43.5601655 26.4244966,43.3306483 C25.5064276,43.081269 24.0039724,42.5573517 22.3470345,41.5488 C35.9962483,41.2164414 45.9917241,34.2104276 53.981131,17.6745931 L54.5293241,16.9021793 C54.5844966,16.8858483 54.6405517,16.8704 54.6974897,16.8553931 C54.7014621,16.9092414 54.7049931,16.9630897 54.7076414,17.0173793 C55.6173241,16.7724138 56.6475034,16.6625103 57.6591448,16.6625103 C59.3937655,16.6625103 61.0736552,16.9864828 61.9965793,17.5095172 C61.9979034,17.5104 61.999669,17.5112828 62.0014345,17.5126069 L62.9031724,18.1239172 L62.4489931,19.0852414 C60.3780414,23.2832 55.8808276,23.5983448 53.7758897,23.5983448 C53.6046345,23.5983448 53.449269,23.5965793 53.3124414,23.5943724 C48.1518345,36.374069 37.430731,42.9651862 24.2374621,43.8903172"/>
    <path fill="#F3F3F3" d="M13.9219862,43.1832276 C9.856,42.1345103 6.96452414,40.1730207 4.92005517,37.8487172 C5.12617931,37.8893241 5.33406897,37.9255172 5.54284138,37.9586207 C7.3705931,40.0339862 9.85732414,41.8100966 13.2153379,42.9042759 C13.4466207,43.0009379 13.6823172,43.094069 13.9219862,43.1832276"/>
    <path fill="#F3F3F3" d="M13.2153379,42.9042759 C9.85732414,41.8100966 7.3705931,40.0339862 5.54284138,37.9586207 C5.60463448,37.968331 5.66686897,37.9776 5.72866207,37.986869 C7.52066207,39.484469 9.96678621,41.5470345 13.2153379,42.9042759"/>
    <path fill="#0994E0" d="M13.2153379,42.9042759 C9.85732414,41.8100966 7.3705931,40.0339862 5.54284138,37.9586207 C5.60463448,37.968331 5.66686897,37.9776 5.72866207,37.986869 C7.52066207,39.484469 9.96678621,41.5470345 13.2153379,42.9042759"/>
    <path fill="#F3F3F3" d="M4.81765517,37.7313103 C0.335889655,32.5380414 0.00397241379,25.5938207 0.186703448,22.9137655 L0.894675862,22.9137655 C0.578648276,25.6829793 0.970593103,31.6217379 4.39834483,36.5038345 C4.2752,36.4738207 4.15293793,36.4420414 4.03111724,36.4093793 C4.5206069,37.2321103 4.72893793,37.5821241 4.81765517,37.7313103"/>
    <path fill="#F3F3F3" d="M7.91790345,36.9637517 C6.7072,36.9390345 5.5296,36.7810207 4.39834483,36.5038345 C0.970593103,31.6217379 0.578648276,25.6829793 0.894675862,22.9137655 L2.57544828,22.9137655 C3.14041379,28.681269 4.48044138,33.6211862 7.91790345,36.9637517"/>
    <path fill="#0994E0" d="M7.91790345,36.9637517 C6.7072,36.9390345 5.5296,36.7810207 4.39834483,36.5038345 C0.970593103,31.6217379 0.578648276,25.6829793 0.894675862,22.9137655 L2.57544828,22.9137655 C3.14041379,28.681269 4.48044138,33.6211862 7.91790345,36.9637517"/>
    <path fill="#F3F3F3" d="M20.9456552,44.0041931 C18.2823724,44.0041931 15.9554207,43.7075862 13.9219862,43.1832276 C13.6823172,43.094069 13.4466207,43.0009379 13.2153379,42.9042759 C9.96678621,41.5470345 7.52066207,39.484469 5.72866207,37.986869 C6.55227586,38.1073655 7.39398621,38.1696 8.25114483,38.1696 C8.60513103,38.1696 8.95602759,38.1590069 9.30427586,38.1382621 C12.2319448,40.2944 16.3822345,41.5342345 22.2817103,41.5501241 C22.3037793,41.5496828 22.3254069,41.5492414 22.3470345,41.5488 C24.0039724,42.5573517 25.5064276,43.081269 26.4244966,43.3306483 C25.6750345,43.5601655 24.9463172,43.7455448 24.2374621,43.8903172 C23.1565241,43.9662345 22.0583724,44.0041931 20.9456552,44.0041931"/>
    <path fill="#F2F2F2" d="M20.9456552,44.0041931 C18.2823724,44.0041931 15.9554207,43.7075862 13.9219862,43.1832276 C13.6823172,43.094069 13.4466207,43.0009379 13.2153379,42.9042759 C9.96678621,41.5470345 7.52066207,39.484469 5.72866207,37.986869 C6.55227586,38.1073655 7.39398621,38.1696 8.25114483,38.1696 C8.60513103,38.1696 8.95602759,38.1590069 9.30427586,38.1382621 C12.2319448,40.2944 16.3822345,41.5342345 22.2817103,41.5501241 C22.3037793,41.5496828 22.3254069,41.5492414 22.3470345,41.5488 C24.0039724,42.5573517 25.5064276,43.081269 26.4244966,43.3306483 C25.6750345,43.5601655 24.9463172,43.7455448 24.2374621,43.8903172 C23.1565241,43.9662345 22.0583724,44.0041931 20.9456552,44.0041931"/>
    <path fill="#F3F3F3" d="M8.25114483,38.1696 C7.39398621,38.1696 6.55227586,38.1073655 5.72866207,37.986869 C5.66686897,37.9776 5.60463448,37.968331 5.54284138,37.9586207 C5.33406897,37.9255172 5.12617931,37.8893241 4.92005517,37.8487172 C4.88562759,37.8094345 4.85164138,37.7705931 4.81765517,37.7313103 C4.72893793,37.5821241 4.5206069,37.2321103 4.03111724,36.4093793 C4.15293793,36.4420414 4.2752,36.4738207 4.39834483,36.5038345 C5.5296,36.7810207 6.7072,36.9390345 7.91790345,36.9637517 C8.34604138,37.3804138 8.80816552,37.7728 9.30427586,38.1382621 C8.95602759,38.1590069 8.60513103,38.1696 8.25114483,38.1696"/>
    <path fill="#0269AD" d="M8.25114483,38.1696 C7.39398621,38.1696 6.55227586,38.1073655 5.72866207,37.986869 C5.66686897,37.9776 5.60463448,37.968331 5.54284138,37.9586207 C5.33406897,37.9255172 5.12617931,37.8893241 4.92005517,37.8487172 C4.88562759,37.8094345 4.85164138,37.7705931 4.81765517,37.7313103 C4.72893793,37.5821241 4.5206069,37.2321103 4.03111724,36.4093793 C4.15293793,36.4420414 4.2752,36.4738207 4.39834483,36.5038345 C5.5296,36.7810207 6.7072,36.9390345 7.91790345,36.9637517 C8.34604138,37.3804138 8.80816552,37.7728 9.30427586,38.1382621 C8.95602759,38.1590069 8.60513103,38.1696 8.25114483,38.1696"/>
    <polygon fill="#066DA5" points="6.181 20.552 6.778 20.552 6.778 16.969 6.181 16.969"/>
    <polygon fill="#066DA5" points="7.972 20.552 8.569 20.552 8.569 16.969 7.972 16.969"/>
    <polygon fill="#066DA5" points="9.764 20.552 10.361 20.552 10.361 16.969 9.764 16.969"/>
    <polygon fill="#066DA5" points="13.944 20.552 14.541 20.552 14.541 16.969 13.944 16.969"/>
    <polygon fill="#066DA5" points="15.736 20.552 16.333 20.552 16.333 16.969 15.736 16.969"/>
    <polygon fill="#066DA5" points="17.527 20.552 18.124 20.552 18.124 16.969 17.527 16.969"/>
    <polygon fill="#066DA5" points="21.707 20.552 22.305 20.552 22.305 16.969 21.707 16.969"/>
    <polygon fill="#066DA5" points="23.499 20.552 24.096 20.552 24.096 16.969 23.499 16.969"/>
    <polygon fill="#066DA5" points="25.29 20.552 25.887 20.552 25.887 16.969 25.29 16.969"/>
    <polygon fill="#066DA5" points="29.47 20.552 30.068 20.552 30.068 16.969 29.47 16.969"/>
    <polygon fill="#066DA5" points="31.262 20.552 31.859 20.552 31.859 16.969 31.262 16.969"/>
    <polygon fill="#066DA5" points="33.054 20.552 33.651 20.552 33.651 16.969 33.054 16.969"/>
    <polygon fill="#066DA5" points="37.233 20.552 37.831 20.552 37.831 16.969 37.233 16.969"/>
    <polygon fill="#066DA5" points="39.025 20.552 39.623 20.552 39.623 16.969 39.025 16.969"/>
    <polygon fill="#066DA5" points="40.817 20.552 41.414 20.552 41.414 16.969 40.817 16.969"/>
    <polygon fill="#066DA5" points="15.736 13.387 16.333 13.387 16.333 9.803 15.736 9.803"/>
    <polygon fill="#066DA5" points="17.527 13.387 18.124 13.387 18.124 9.803 17.527 9.803"/>
    <polygon fill="#066DA5" points="21.707 13.387 22.305 13.387 22.305 9.803 21.707 9.803"/>
    <polygon fill="#066DA5" points="23.499 13.387 24.096 13.387 24.096 9.803 23.499 9.803"/>
    <polygon fill="#066DA5" points="25.29 13.387 25.887 13.387 25.887 9.803 25.29 9.803"/>
    <polygon fill="#066DA5" points="29.47 13.387 30.068 13.387 30.068 9.803 29.47 9.803"/>
    <polygon fill="#066DA5" points="31.262 13.387 31.859 13.387 31.859 9.803 31.262 9.803"/>
    <polygon fill="#066DA5" points="33.054 13.387 33.651 13.387 33.651 9.803 33.054 9.803"/>
    <polygon fill="#066DA5" points="31.262 6.22 31.859 6.22 31.859 2.637 31.262 2.637"/>
    <polygon fill="#066DA5" points="29.47 6.22 30.068 6.22 30.068 2.637 29.47 2.637"/>
    <polygon fill="#066DA5" points="33.054 6.22 33.651 6.22 33.651 2.637 33.054 2.637"/>
    <mask id="docker-d" fill="#fff">
      <use xlink:href="#docker-c"/>
    </mask>
    <polygon fill="#066DA5" points="13.944 13.387 14.541 13.387 14.541 9.803 13.944 9.803" mask="url(#docker-d)"/>
    <path fill="#066DA5" d="M62.0230621,18.4827586 C61.9493517,18.633269 61.8866759,18.7603862 61.8381241,18.8557241 C61.8120828,18.9073655 61.7908966,18.9488552 61.7330759,19.0516966 C60.8463448,20.7646897 59.5442759,21.8368 57.8930759,22.4172138 C56.5861517,22.8766897 55.4010483,22.979531 53.6253793,22.9428966 C53.6077241,22.9424552 53.4964966,22.9402483 53.3150897,22.9367172 L52.9037241,22.9300966 L52.7510069,23.3136552 C47.5268414,36.4146759 36.1185103,43.3765517 21.0577655,43.3765517 C12.4486621,43.3765517 6.83034483,40.1160828 3.73097931,34.5533793 C2.53528276,32.4065103 1.77434483,29.9979034 1.41815172,27.5323586 C1.17053793,25.8224552 1.13743448,24.1633103 1.27382069,22.9367172 L3.79188966,22.9367172 L3.79188966,22.941131 L43.8024828,22.941131 L43.8024828,22.9296552 C46.1678345,22.902731 48.3795862,22.1709241 49.4896552,21.308469 L49.9791448,20.9284414 L49.5849931,20.4491034 C48.8452414,19.5504552 48.3685517,18.2342621 48.2259862,16.8624552 C48.0564966,14.7689931 48.5636414,12.5523862 49.6229517,10.9444414 L49.8877793,10.5445517 L50.2686897,10.8001103 C52.5868138,12.611531 53.7772138,14.6228966 53.9034483,16.9573517 L53.9431724,17.6971034 L54.6537931,17.5055448 C56.9794207,16.8792276 60.3837793,17.1851034 61.6333241,18.025931 L62.0945655,18.3362207 C62.0738207,18.3799172 62.0526345,18.422731 62.0230621,18.4827586 Z M4.98626207,21.7344 L11.5553103,21.7344 L11.5553103,15.7748966 L4.98626207,15.7748966 L4.98626207,21.7344 Z M12.7496828,21.7344 L19.318731,21.7344 L19.318731,15.7748966 L12.7496828,15.7748966 L12.7496828,21.7344 Z M12.7496828,14.5805241 L19.318731,14.5805241 L19.318731,8.60866207 L12.7496828,8.60866207 L12.7496828,14.5805241 Z M20.5126621,21.7344 L27.0817103,21.7344 L27.0817103,15.7748966 L20.5126621,15.7748966 L20.5126621,21.7344 Z M20.5126621,14.5805241 L27.0817103,14.5805241 L27.0817103,8.60866207 L20.5126621,8.60866207 L20.5126621,14.5805241 Z M28.2760828,21.7344 L34.8446897,21.7344 L34.8446897,15.7748966 L28.2760828,15.7748966 L28.2760828,21.7344 Z M28.2760828,14.5805241 L34.8446897,14.5805241 L34.8446897,8.60866207 L28.2760828,8.60866207 L28.2760828,14.5805241 Z M28.2760828,7.41428966 L34.8446897,7.41428966 L34.8446897,1.44286897 L28.2760828,1.44286897 L28.2760828,7.41428966 Z M36.0390621,21.7344 L42.6081103,21.7344 L42.6081103,15.7748966 L36.0390621,15.7748966 L36.0390621,21.7344 Z M62.2967172,17.0262069 C60.8622345,16.060469 57.5911724,15.6967724 55.0289655,16.1875862 C54.6983724,13.7719172 53.3433379,11.6753655 50.9669517,9.82333793 L49.5563034,8.87702069 L48.6280828,10.2792828 C47.4138483,12.1220414 46.8453517,14.6078897 47.0369103,16.9736828 C47.1781517,18.3304828 47.5974621,19.6391724 48.2701241,20.675531 C47.2536276,21.2422621 45.5856552,21.7057103 43.8024828,21.7295448 L43.8024828,14.5805241 L36.0390621,14.5805241 L36.0390621,0.248496552 L27.0817103,0.248496552 L27.0817103,7.41428966 L11.5553103,7.41428966 L11.5553103,14.5805241 L3.79188966,14.5805241 L3.79188966,21.7344 L0.24937931,21.7344 L0.165075862,22.2349241 C-0.0670896552,23.616 -0.064,25.6304552 0.236137931,27.7058207 C0.612634483,30.3099586 1.41726897,32.8589241 2.68932414,35.1417379 C6.00143448,41.0866759 12.0196414,44.5793103 21.0577655,44.5793103 C36.4376276,44.5793103 48.2184828,37.4784 53.7035034,24.1469793 C55.5559724,24.1800828 56.8368552,24.0622345 58.2872276,23.5524414 C60.2081103,22.877131 61.7485241,21.6116966 62.7813517,19.6285793 C62.8391724,19.5328 62.9234759,19.3633103 63.1035586,18.9960828 C63.1684414,18.8627862 63.2372966,18.7206621 63.3065931,18.5785379 C63.3299862,18.5286621 63.3524966,18.4827586 63.3979586,18.3887448 L63.6235034,17.9173517 L62.2967172,17.0262069 Z" mask="url(#docker-d)"/>
    <path fill="#066DA5" d="M40.6585379,42.1437793 L40.7538759,42.1437793 C40.8651034,42.1437793 40.9551448,42.1067034 40.9551448,42.0166621 C40.9551448,41.9372138 40.8968828,41.8842483 40.7697655,41.8842483 C40.7168,41.8842483 40.6797241,41.8895448 40.6585379,41.8948414 L40.6585379,42.1437793 Z M40.6532414,42.6359172 L40.4519724,42.6359172 L40.4519724,41.7677241 C40.5314207,41.7518345 40.6426483,41.7412414 40.7856552,41.7412414 C40.9498483,41.7412414 41.0235586,41.7677241 41.0875586,41.8048 C41.1347862,41.8414345 41.1718621,41.910731 41.1718621,41.9954759 C41.1718621,42.0908138 41.0977103,42.1649655 40.9922207,42.1963034 L40.9922207,42.2073379 C41.0765241,42.2391172 41.1246345,42.3022345 41.1506759,42.4187586 C41.1776,42.5511724 41.1930483,42.6041379 41.2146759,42.6359172 L40.9975172,42.6359172 C40.9710345,42.6041379 40.9551448,42.5246897 40.9282207,42.4240552 C40.9127724,42.3287172 40.8598069,42.2863448 40.7485793,42.2863448 L40.6532414,42.2863448 L40.6532414,42.6359172 Z M40.1182897,42.1804138 C40.1182897,42.5670621 40.4047448,42.8738207 40.7962483,42.8738207 C41.1776,42.8738207 41.4578759,42.5670621 41.4578759,42.1861517 C41.4578759,41.7995034 41.1776,41.4874483 40.7909517,41.4874483 C40.4047448,41.4874483 40.1182897,41.7995034 40.1182897,42.1804138 Z M41.680331,42.1804138 C41.680331,42.6729931 41.2941241,43.0592 40.7909517,43.0592 C40.2935172,43.0592 39.8967172,42.6729931 39.8967172,42.1804138 C39.8967172,41.698869 40.2935172,41.3122207 40.7909517,41.3122207 C41.2941241,41.3122207 41.680331,41.698869 41.680331,42.1804138 Z"/>
  </g>
</svg>
