<svg xmlns="http://www.w3.org/2000/svg" width="64" height="64" viewBox="0 0 64 64">
  <path fill="#DE4C36" fill-rule="evenodd" d="M34.8495405,1.20720221 C33.2413305,-0.402400736 30.6315589,-0.402400736 29.020563,1.20720221 L23.2187488,7.01040935 L30.5786252,14.3709822 C32.2892201,13.7928903 34.2512502,14.1808387 35.6142934,15.543882 C36.9856946,16.9159797 37.3694641,18.8940292 36.7774422,20.6108925 L43.871257,27.7047073 C45.5881204,27.1126855 47.5675629,27.495062 48.9389641,28.8685526 C50.8543289,30.783221 50.8543289,33.887505 48.9389641,35.8035663 C47.0222063,37.7203241 43.9186188,37.7203241 42.0011645,35.8035663 C40.5601136,34.3618189 40.204204,32.2444702 40.9341321,30.4697976 L34.3174173,23.8537793 L34.3174173,41.2634008 C34.7840698,41.4946375 35.224952,41.8031854 35.6142934,42.1911338 C37.5296582,44.1064986 37.5296582,47.2100861 35.6142934,49.1282369 C33.6989286,51.0429053 30.5932516,51.0429053 28.6792798,49.1282369 C26.763915,47.2100861 26.763915,44.1064986 28.6792798,42.1911338 C29.1522008,41.7182128 29.7010398,41.3602137 30.2854002,41.120619 L30.2854002,23.5494104 C29.7010398,23.3105122 29.1535938,22.9552991 28.6792798,22.4795921 C27.228478,21.0294868 26.8795333,18.8996011 27.6233914,17.1179636 L20.367293,9.8604722 L1.20667983,29.0196923 C-0.402226612,30.6306883 -0.402226612,33.2404599 1.20667983,34.8500628 L29.1508078,62.7921013 C30.7597142,64.4010077 33.3687893,64.4010077 34.9804818,62.7921013 L62.7922754,34.9796112 C64.4025749,33.3700082 64.4025749,30.7581471 62.7922754,29.1492407 L34.8495405,1.20720221 Z"/>
</svg>
