<svg xmlns="http://www.w3.org/2000/svg" width="56" height="64" viewBox="0 0 56 64">
  <g fill="none" fill-rule="evenodd">
    <polygon fill="#E44D26" fill-rule="nonzero" points="5.169 57.692 .092 .708 55.908 .708 50.831 57.662 27.954 64"/>
    <polygon fill="#F16529" fill-rule="nonzero" points="28 59.154 28 5.385 50.815 5.385 46.462 54"/>
    <path fill="#EBEBEB" fill-rule="nonzero" d="M10.4615385,12.3538462 L28,12.3538462 L28,19.3384615 L18.1230769,19.3384615 L18.7692308,26.4923077 L28,26.4923077 L28,33.4615385 L12.3692308,33.4615385 M12.6769231,36.9692308 L19.6923077,36.9692308 L20.1846154,42.5538462 L28,44.6461538 L28,51.9384615 L13.6615385,47.9384615"/>
    <path fill="#FFF" fill-rule="nonzero" d="M45.4769231,12.3538462 L27.9692308,12.3538462 L27.9692308,19.3384615 L44.8307692,19.3384615 M44.2,26.4923077 L27.9692308,26.4923077 L27.9692308,33.4769231 L36.5846154,33.4769231 L35.7692308,42.5538462 L27.9692308,44.6461538 L27.9692308,51.9076923 L42.2769231,47.9384615"/>
  </g>
</svg>
