<svg xmlns="http://www.w3.org/2000/svg" width="57" height="64" viewBox="0 0 57 64">
  <g fill="none" fill-rule="evenodd">
    <polygon fill="#D4B830" fill-rule="nonzero" points="5.414 57.45 .216 .222 56.221 .244 51.066 57.407 28.175 63.872"/>
    <polygon fill="#FDD83C" fill-rule="nonzero" points="28.262 5.289 51.197 5.289 46.851 54.305 28.262 59.351"/>
    <polygon fill="#FFF" points="45.671 46.092 47.178 27.766 36.038 29.011 36.038 19.225 47.921 19.181 48.401 12.497 30.468 12.585 30.709 36.918 41.543 35.061 41.39 40.478 30.468 43.383 30.578 50.024"/>
    <path fill="#EBEBEB" fill-opacity=".922" fill-rule="nonzero" d="M9.69567235,45.5896246 L9.67382935,38.8838225 C9.67382935,38.8838225 16.5762184,40.8278498 20.486116,41.832628 L20.5516451,12.5193174 L26.1216109,12.5193174 L26.1216109,50.0237543 L9.69567235,45.5896246 Z" opacity=".986"/>
  </g>
</svg>
