<svg xmlns="http://www.w3.org/2000/svg" width="64" height="61" viewBox="0 0 64 61">
  <defs>
    <linearGradient id="maya-a" x1="-2.838%" x2="111.379%" y1="54.23%" y2="39.315%">
      <stop offset="0%" stop-color="#0F6067"/>
      <stop offset="50%" stop-color="#05ABAC"/>
      <stop offset="100%" stop-color="#58BEC4"/>
    </linearGradient>
    <linearGradient id="maya-b" x1="49.627%" x2="85.568%" y1="101.07%" y2="-.312%">
      <stop offset="0%" stop-color="#117C83"/>
      <stop offset="50%" stop-color="#21B5B5"/>
      <stop offset="100%" stop-color="#7ED4D4"/>
    </linearGradient>
    <linearGradient id="maya-c" x1="69.421%" x2="33.617%" y1="5.251%" y2="91.085%">
      <stop offset="0%" stop-color="#9ACCD3"/>
      <stop offset="50%" stop-color="#72AEB3"/>
      <stop offset="100%" stop-color="#317D7F"/>
    </linearGradient>
    <linearGradient id="maya-d" x1="-20.471%" x2="123.684%" y1="66.856%" y2="42.229%">
      <stop offset="0%" stop-color="#21626E"/>
      <stop offset="50%" stop-color="#157C84"/>
      <stop offset="100%" stop-color="#03A3A5"/>
    </linearGradient>
    <linearGradient id="maya-e" x1="97.657%" x2="-97.638%" y1="26.743%" y2="73.255%">
      <stop offset="0%" stop-color="#0B7C81"/>
      <stop offset="50%" stop-color="#068D90"/>
      <stop offset="100%" stop-color="#16B1B1"/>
    </linearGradient>
    <linearGradient id="maya-f" x1="-655.493%" x2="855.661%" y1="69.8%" y2="30.196%">
      <stop offset="0%" stop-color="#0A8A8F"/>
      <stop offset="50%" stop-color="#0F7C82"/>
      <stop offset="100%" stop-color="#1A5964"/>
    </linearGradient>
    <linearGradient id="maya-g" x1="105.559%" x2="-4.821%" y1="58.569%" y2="41.504%">
      <stop offset="0%" stop-color="#256A77"/>
      <stop offset="50%" stop-color="#0D9499"/>
      <stop offset="100%" stop-color="#06A0A2"/>
    </linearGradient>
  </defs>
  <g fill="none" fill-rule="evenodd">
    <path fill="url(#maya-a)" fill-rule="nonzero" d="M44.7762438,1.86762509 L63.9631247,1.86762509 L38.3200443,49.1650977 C38.3200443,49.1650977 33.9996011,36.6350151 32.1427147,32.1633364"/>
    <path fill="url(#maya-b)" fill-rule="nonzero" d="M49.5094072,60.3503132 L63.9631247,60.3503132 L63.9631247,1.86762509 C63.9512465,32.4294066 51.0870693,60.3503132 49.5094072,60.3503132 Z"/>
    <path fill="url(#maya-c)" fill-rule="nonzero" d="M38.3200443,49.1650977 L26.3901607,49.1650977 L0.0432576177,1.86762509 C4.71561219,1.27387963 14.0480886,0.473898802 18.6716898,0.0984264975 L38.3200443,49.1650977 Z"/>
    <path fill="url(#maya-d)" fill-rule="nonzero" d="M15.3222382,30.4907941 C11.3657618,46.098829 0.0312022161,60.810581 0.0432480086,60.7985506 C13.1742493,60.7985432 16.0019501,58.896221 16.0019501,57.8900048 C16.0019501,57.3325497 16.0019501,39.9186717 16.0019501,31.678639 C15.7714792,31.2907749 15.5528864,30.890873 15.3222382,30.4907941 Z"/>
    <path fill="url(#maya-e)" fill-rule="nonzero" d="M0.0432576177,1.86762509 L0.0432576177,60.7985432 C7.22739058,48.9470016 11.4146925,41.1911352 15.1160554,30.1393973 C5.98976177,14.0222354 0.0432576177,1.86762509 0.0432576177,1.86762509 Z"/>
    <polyline fill="url(#maya-f)" fill-rule="nonzero" points="48.514 58.036 49.509 60.35 49.509 29.643 48.514 31.303"/>
    <path fill="url(#maya-g)" fill-rule="nonzero" d="M49.460831,29.703028 L49.460831,60.2533029 L49.4969972,60.3503132 C50.5286205,60.3503132 63.9510693,27.2914018 63.9510693,1.86762509 C63.9512465,1.86762509 55.7592465,18.9301063 49.460831,29.703028 Z"/>
  </g>
</svg>
