<svg xmlns="http://www.w3.org/2000/svg" width="64" height="44" viewBox="0 0 64 44">
  <g fill="none" fill-rule="evenodd">
    <path fill="#00758F" fill-rule="nonzero" d="M15.7244858,24.9891153 L13.2795017,24.9891153 C13.1935169,29.1270081 12.9551732,33.017981 12.5656019,36.6627903 L12.5440665,36.6627903 L8.82141666,24.9891153 L6.95980892,24.9891153 L3.25971126,36.6627903 L3.23791337,36.6627903 C2.96336554,33.1624272 2.79064177,29.2714543 2.71861068,24.9891153 L0.489304955,24.9891153 C0.633367139,30.1971201 0.993899724,35.0791757 1.57090271,39.6364163 L4.60133749,39.6364163 L8.1287868,28.8740381 L8.15043271,28.8740381 L11.6995291,39.6364163 L14.5991388,39.6364163 C15.2340683,34.2990904 15.6090072,29.4155224 15.7241815,24.9891153" transform="matrix(1 0 0 -1 0 64.626)"/>
    <path fill="#00758F" fill-rule="nonzero" d="M26.3304041,43.476644 C25.3347534,38.0599105 24.0214494,34.1235618 22.3913216,31.667976 C21.1211985,29.7758439 19.7297917,28.8297967 18.2146497,28.8297967 C17.8107476,28.8297967 17.3126771,28.9517819 16.721645,29.1941642 L16.721645,30.4999278 C17.0103728,30.4575393 17.3491829,30.434927 17.7388296,30.434927 C18.4456772,30.434927 19.0153262,30.6307991 19.4487195,31.0217493 C19.9677205,31.4981193 20.2274473,32.0335535 20.2274473,32.6269174 C20.2274473,33.0321987 20.0248551,33.8638233 19.6215187,35.1218289 L16.9381909,43.476644 L19.3401449,43.476644 L21.266015,37.2280213 C21.6986541,35.8093098 21.8791089,34.8189078 21.806927,34.2543953 C22.8602403,37.075294 23.5960888,40.1494651 24.0147365,43.476644 L26.3304041,43.476644" transform="matrix(1 0 0 -1 0 72.306)"/>
    <path fill="#F29111" fill-rule="nonzero" d="M37.0407864,29.045672 C37.0407864,27.8034723 36.5855951,26.7836895 35.6782297,25.9857942 C34.7701099,25.1914156 33.5501069,24.7931675 32.0223689,24.7931675 C30.593438,24.7931675 29.2086308,25.2515385 27.8671931,26.1607935 L28.494731,27.4189882 C29.6491141,26.8404092 30.6937535,26.5514789 31.6316662,26.5514789 C32.5115015,26.5514789 33.2001338,26.7478048 33.6983175,27.1356921 C34.1953697,27.5263775 34.4932993,28.071265 34.4932993,28.7623759 C34.4932993,29.6320783 33.888389,30.3754848 32.7785068,30.999137 C31.7538551,31.5629311 29.7060602,32.7400165 29.7060602,32.7400165 C28.5965551,33.5515245 28.040294,34.4222479 28.040294,35.8569165 C28.040294,37.0434553 28.4551328,38.0025102 29.2836789,38.7321905 C30.1141107,39.4633455 31.185526,39.828923 32.4975478,39.828923 C33.8536934,39.828923 35.0868959,39.4660302 36.1975324,38.7428538 L35.6333517,37.4858313 C34.6829938,37.889827 33.7458353,38.0926189 32.8218763,38.0926189 C32.0721496,38.0926189 31.4943923,37.9121367 31.0916216,37.5490549 C30.6865881,37.1891115 30.4361764,36.7259005 30.4361764,36.1613502 C30.4361764,35.2938787 31.0542861,34.5414349 32.1954698,33.9057203 C33.2329438,33.3416237 35.3308965,32.1417747 35.3308965,32.1417747 C36.4720802,31.3317415 37.0407864,30.468127 37.0407864,29.045672" transform="matrix(1 0 0 -1 0 64.622)"/>
    <path fill="#F29111" d="M41.4116783,29.7013898 C40.8199674,30.6561718 40.5235463,32.1883227 40.5235463,34.3009811 C40.5235463,37.9892378 41.6421024,39.8345572 43.8780832,39.8345572 C45.0471743,39.8345572 45.9051362,39.3932021 46.4538547,38.5113995 C47.0448114,37.5561638 47.3412325,36.0372852 47.3412325,33.9541589 C47.3412325,30.2363702 46.2226764,28.3767196 43.9866956,28.3767196 C42.8179817,28.3767196 41.9596426,28.8176209 41.4116783,29.7012385 M50.111224,26.4179607 L47.4260859,27.7455803 C47.6651877,27.9421709 47.8922138,28.1542648 48.0977476,28.3997856 C49.2377999,29.7436271 49.8083917,31.7326365 49.8083917,34.3659441 C49.8083917,39.211699 47.9110701,41.6358999 44.1168041,41.6358999 C42.2556866,41.6358999 40.8052595,41.0214363 39.7666541,39.7907318 C38.6262247,38.4452643 38.0567642,36.4637419 38.0567642,33.8453705 C38.0567642,31.270711 38.561359,29.3819065 39.5713028,28.1820953 C40.4914905,27.0976142 41.883086,26.5546174 43.7460891,26.5546174 C44.4411326,26.5546174 45.0788529,26.6404154 45.6584957,26.8120493 L49.1552093,24.7717653 L50.1085841,26.4181119" transform="matrix(1 0 0 -1 0 66.408)"/>
    <polyline fill="#F29111" fill-rule="nonzero" points="58.876 24.989 51.93 24.989 51.93 39.636 54.268 39.636 54.268 26.791 58.876 26.791 58.876 24.989" transform="matrix(1 0 0 -1 0 64.626)"/>
    <path fill="#F29111" fill-rule="nonzero" d="M60.5432872,37.8402539 L60.9305957,37.8402539 L60.9305957,39.3305079 L61.4374533,39.3305079 L61.4374533,39.6349038 L60.0168191,39.6349038 L60.0168191,39.3305079 L60.5432872,39.3305079 L60.5432872,37.8402539 Z M63.4905279,37.8402539 L63.8555898,37.8402539 L63.8555898,39.6349038 L63.3064942,39.6349038 L62.8595997,38.4116106 L62.373107,39.6349038 L61.843999,39.6349038 L61.843999,37.8402539 L62.1894428,37.8402539 L62.1894428,39.2061027 L62.2090571,39.2061027 L62.7185545,37.8402539 L62.9817848,37.8402539 L63.4905279,39.2061027 L63.4905279,37.8402539 Z" transform="matrix(1 0 0 -1 0 77.475)"/>
    <path fill="#00758F" d="M61.810431,6.11356994 C60.3977165,6.14899897 59.3036736,6.00765531 58.3861257,5.61799082 C58.1213831,5.51192494 57.6982476,5.51192494 57.6620435,5.1756148 C57.8042201,5.03426926 57.8211945,4.80440313 57.9456424,4.60887134 C58.156833,4.25494027 58.5267937,3.77785179 58.8628131,3.5294194 C59.2335243,3.2461233 59.6042431,2.9639994 59.9930602,2.71628547 C60.6809382,2.28971534 61.4578181,2.04302237 62.1275941,1.61807821 C62.5171654,1.37066678 62.9040968,1.0523557 63.2936681,0.786188952 C63.4871338,0.644692152 63.6096998,0.414258828 63.8578488,0.326683577 L63.8578488,0.380264808 C63.7333934,0.53908003 63.6987016,0.769210849 63.5757584,0.947197337 C63.3996405,1.1228016 63.2227684,1.28309153 63.0458962,1.4593008 C62.5337589,2.14939075 61.8975471,2.75054418 61.2108004,3.2461233 C60.6454884,3.63650624 59.4092689,4.16751628 59.1807305,4.82036028 C59.1807305,4.82036028 59.1622513,4.83911446 59.1449035,4.85654633 C59.5333434,4.89246919 59.9930602,5.03426812 60.363398,5.14161965 C60.9626514,5.30043487 61.5098615,5.26451238 62.1275941,5.4233276 C62.4104387,5.4946432 62.6929062,5.58373098 62.976505,5.67073903 L62.976505,5.8311424 C62.6570792,6.14899594 62.4285407,6.57439764 62.0932756,6.87497435 C61.1938298,7.65339582 60.2042508,8.41381823 59.1807305,9.0519151 C58.6327662,9.40595961 57.9267861,9.63491822 57.3441262,9.93651589 C57.1333164,10.0428843 56.7806997,10.0952933 56.6566252,10.2732798 C56.3387041,10.6624905 56.1614586,11.1750477 55.932543,11.6359144 C55.42116,12.6082039 54.9259934,13.6873911 54.4855101,14.7155306 C54.1679736,15.4052424 53.9737499,16.0949542 53.58531,16.7324839 C51.7664306,19.7416542 49.7902897,21.5634917 46.7544243,23.3512974 C46.1012418,23.7233787 45.3247391,23.8825721 44.4958159,24.0773098 C44.053824,24.0958382 43.6129636,24.1302482 43.171726,24.1476422 C42.8888814,24.2720475 42.6060368,24.6085845 42.3593963,24.7677779 C41.3528466,25.4045513 38.7593502,26.7847312 38.0175431,24.9621375 C37.5408557,23.8111052 38.7235232,22.6789796 39.1296881,22.0947664 C39.4294996,21.6882751 39.8183204,21.2273328 40.0291339,20.7679031 C40.152835,20.4669104 40.1882811,20.1477674 40.3123556,19.8297589 C40.594446,19.0511862 40.8588114,18.1837525 41.2302806,17.4577401 C41.4237463,17.0860406 41.6353141,16.6961833 41.8823317,16.3615369 C42.0248816,16.1656686 42.2711488,16.0783165 42.3243236,15.7587954 C42.0780602,15.4052424 42.0588268,14.8743458 41.9177816,14.4315539 C41.2827012,12.4316165 41.5293417,9.954099 42.4299189,8.48543633 C42.7116321,8.04306031 43.3832937,7.06937175 44.2834938,7.44190688 C45.0777215,7.7599079 44.9012264,8.76873244 45.1305191,9.65306853 C45.183313,9.86694726 45.1478632,10.0072567 45.2534623,10.1486476 L45.2534623,10.1128794 C45.5004761,9.61805658 45.7482517,9.14142185 45.9775444,8.64421676 C46.5255087,7.77791754 47.4777522,6.87512863 48.2727341,6.2739752 C48.6951154,5.95418941 49.0307576,5.40646596 49.5602427,5.21119887 L49.5602427,5.26466666 L49.5255471,5.26466666 C49.4191976,5.42347432 49.2608083,5.49479748 49.1193823,5.6181364 C48.8018383,5.93689746 48.4496063,6.32641448 48.2014573,6.68015648 C47.4604044,7.67082314 46.8064677,8.7687279 46.2253163,9.90123168 C45.9420984,10.4511483 45.6954541,11.0523017 45.4657843,11.6005924 C45.3601852,11.8119716 45.3601852,12.1314512 45.183313,12.2373658 C44.91782,11.8484576 44.5305077,11.5116937 44.3366649,11.0353236 C44.0010226,10.2734265 43.9659536,9.33566043 43.8414982,8.36182061 C43.7713528,8.34333187 43.8068026,8.36182061 43.7713528,8.32665476 C43.2071721,8.46814778 43.0129521,9.05206219 42.8006301,9.54597753 C42.271145,10.8041722 42.1821432,12.8216171 42.6418638,14.2729992 C42.7648069,14.6439499 43.2958005,15.8119943 43.0831013,16.1659254 C42.9763784,16.503593 42.6237617,16.6964438 42.4299189,16.9630265 C42.2009995,17.2991854 41.9524772,17.7230708 41.7952156,18.0955303 C41.3713258,19.0862348 41.1582495,20.1839505 40.7007955,21.174655 C40.4888507,21.6355972 40.1173814,22.1135554 39.8183204,22.5374408 C39.482301,23.015399 39.1119631,23.3515579 38.8468435,23.9172426 C38.7593464,24.1123584 38.6356491,24.4311233 38.7763209,24.6428769 C38.8110127,24.7846762 38.8826667,24.8379965 39.024089,24.8735409 C39.2522541,25.0682748 39.906187,24.8209806 40.1351026,24.7147257 C40.7886622,24.4500336 41.3358722,24.200845 41.882328,23.829898 C42.1297189,23.6525581 42.3944652,23.3163954 42.7116283,23.2271564 L43.0830938,23.2271564 C43.6476516,23.1042637 44.2834863,23.1927464 44.8133485,23.0327968 C45.7482442,22.7321823 46.5952695,22.2897685 47.3548015,21.8118103 C49.6662076,20.3427695 51.5725802,18.2539712 52.860466,15.7590597 C53.072788,15.3525683 53.1617898,14.980487 53.3556326,14.5566016 C53.7263476,13.6876554 54.1856872,12.8028278 54.555648,11.9541873 C54.9259896,11.122298 55.2797302,10.2735441 55.8099695,9.58228194 C56.0739578,9.21125933 57.1333051,9.01655943 57.6099926,8.82174609 C57.9622321,8.66296868 58.5101926,8.52116938 58.82811,8.32677198 C59.4281177,7.95574937 60.026994,7.53035146 60.5926832,7.1226501 C60.8743926,6.91025364 61.7572487,6.46833138 61.8104235,6.11383312" transform="matrix(1 0 0 -1 0 26.196)"/>
    <path fill="#00758F" d="M43.8064293,6.40092039 C43.5069949,6.40092039 43.2958005,6.36461977 43.0827242,6.31205571 L43.0827242,6.27651514 L43.1170427,6.27651514 C43.2595926,5.99405092 43.5069911,5.79780068 43.6819776,5.55050269 C43.8241542,5.26727465 43.9478478,4.98519613 44.0888967,4.70159752 C44.1062408,4.71898779 44.1232115,4.73752379 44.1232115,4.73752379 C44.3721109,4.91372928 44.495435,5.19657541 44.495435,5.62197332 C44.3887083,5.74676049 44.3721109,5.86965322 44.2831129,5.99405848 C44.1775176,6.1706421 43.9478478,6.25912865 43.8064255,6.40092795" transform="matrix(1 0 0 -1 0 11.103)"/>
  </g>
</svg>
