<svg xmlns="http://www.w3.org/2000/svg" width="64" height="58" viewBox="0 0 64 58">
  <g fill="none" fill-rule="evenodd">
    <polygon fill="#FDB300" fill-rule="nonzero" points="13.935 1.888 31.935 0 49.935 1.888 63.871 20.444 31.935 57.333 0 20.444"/>
    <path fill="#EA6C00" fill-rule="nonzero" d="M12.9353333,20.4441967 L31.9353333,57.33353 L0,20.4441967 M50.9357853,20.4441967 L31.9357853,57.33353 L63.8711187,20.4441967"/>
    <polyline fill="#FDAD00" fill-rule="nonzero" points="12.935 20.444 50.935 20.444 31.935 57.334"/>
    <path fill="#FDD231" fill-rule="nonzero" d="M31.9353333,0 L13.9353333,1.88733333 L12.9353333,20.444 M31.9356347,0 L49.9356347,1.88733333 L50.9356347,20.444"/>
    <path fill="#FDAD00" fill-rule="nonzero" d="M63.8711187,20.444 L49.9357853,1.88733333 L50.9357853,20.444 M0,20.444 L13.9353333,1.88733333 L12.9353333,20.444"/>
    <polyline fill="#FEEEB7" fill-rule="nonzero" points="31.935 0 12.935 20.444 50.935 20.444"/>
  </g>
</svg>
