<svg xmlns="http://www.w3.org/2000/svg" width="64" height="64" viewBox="0 0 64 64">
  <g fill="none" fill-rule="evenodd">
    <path fill="#ECB32D" fill-rule="nonzero" d="M41.2617886,4.21463415 C40.2731707,1.24878049 37.099187,-0.364227642 34.1333333,0.572357724 C31.1674797,1.56097561 29.5544715,4.73495935 30.4910569,7.70081301 L45.1121951,52.6569106 C46.100813,55.4146341 49.1186992,56.9756098 51.9804878,56.1430894 C54.998374,55.2585366 56.8195122,52.0845528 55.8308943,49.1707317 C55.8308943,49.0666667 41.2617886,4.21463415 41.2617886,4.21463415 Z"/>
    <path fill="#63C1A0" fill-rule="nonzero" d="M18.6276423,11.5512195 C17.6390244,8.58536585 14.4650407,6.97235772 11.499187,7.90894309 C8.53333333,8.89756098 6.9203252,12.0715447 7.85691057,15.0373984 L22.4780488,59.9934959 C23.4666667,62.7512195 26.4845528,64.3121951 29.3463415,63.4796748 C32.3642276,62.595122 34.1853659,59.4211382 33.196748,56.5073171 C33.196748,56.403252 18.6276423,11.5512195 18.6276423,11.5512195 Z"/>
    <path fill="#E01A59" fill-rule="nonzero" d="M59.6813008,41.4178862 C62.6471545,40.4292683 64.2601626,37.2552846 63.3235772,34.2894309 C62.3349593,31.3235772 59.1609756,29.7105691 56.195122,30.6471545 L11.1869919,45.3203252 C8.42926829,46.3089431 6.86829268,49.3268293 7.70081301,52.1886179 C8.58536585,55.2065041 11.7593496,57.0276423 14.6731707,56.0390244 C14.7772358,56.0390244 59.6813008,41.4178862 59.6813008,41.4178862 Z"/>
    <path fill="#331433" fill-rule="nonzero" d="M20.5528455,54.1658537 C23.4666667,53.2292683 27.2650407,51.9804878 31.3235772,50.6796748 C30.3869919,47.7658537 29.1382114,43.9674797 27.8373984,39.9089431 L17.0666667,43.395122 L20.5528455,54.1658537 Z"/>
    <path fill="#D62027" fill-rule="nonzero" d="M43.2390244,46.7772358 C47.297561,45.4764228 51.095935,44.2276423 54.0097561,43.2910569 C53.0731707,40.3772358 51.8243902,36.5788618 50.5235772,32.5203252 L39.7528455,36.0065041 L43.2390244,46.7772358 Z"/>
    <path fill="#89D3DF" fill-rule="nonzero" d="M52.2926829,18.7837398 C55.2585366,17.795122 56.8715447,14.6211382 55.9349593,11.6552846 C54.9463415,8.68943089 51.7723577,7.07642276 48.8065041,8.01300813 L3.8504065,22.6341463 C1.09268293,23.6227642 -0.468292683,26.6406504 0.364227642,29.502439 C1.24878049,32.5203252 4.42276423,34.3414634 7.33658537,33.3528455 C7.44065041,33.3528455 52.2926829,18.7837398 52.2926829,18.7837398 Z"/>
    <path fill="#258B74" fill-rule="nonzero" d="M13.2162602,31.4796748 C16.1300813,30.5430894 19.9284553,29.2943089 23.9869919,27.9934959 C22.6861789,23.9349593 21.4373984,20.1365854 20.500813,17.2227642 L9.7300813,20.7089431 L13.2162602,31.4796748 Z"/>
    <path fill="#819C3C" fill-rule="nonzero" d="M35.8504065,24.1430894 C39.9089431,22.8422764 43.7073171,21.5934959 46.6211382,20.6569106 C45.3203252,16.598374 44.0715447,12.8 43.1349593,9.88617886 L32.3642276,13.3723577 L35.8504065,24.1430894 Z"/>
  </g>
</svg>
