<svg width="30" height="24" xmlns="http://www.w3.org/2000/svg"><g fill="none" fill-rule="evenodd"><path d="M-9-12h48v48H-9z"/><path d="M27.283 6.028c.239-.578 1.009-2.87-.238-5.975 0 0-1.925-.596-6.307 2.347-1.833-.506-3.795-.578-5.738-.578-1.943 0-3.905.072-5.738.578C4.88-.561 2.955.053 2.955.053c-1.247 3.105-.477 5.397-.238 5.975C1.232 7.598.333 9.62.333 12.076c0 9.297 6.105 11.39 14.63 11.39s14.704-2.093 14.704-11.39c0-2.456-.899-4.477-2.384-6.048zM15 21.698c-6.05 0-10.963-.271-10.963-6.048 0-1.372.696-2.672 1.87-3.737 1.961-1.769 5.316-.83 9.093-.83 3.795 0 7.113-.939 9.093.83 1.192 1.065 1.87 2.347 1.87 3.737 0 5.759-4.913 6.048-10.963 6.048zm-4.602-9.045c-1.21 0-2.2 1.444-2.2 3.214 0 1.769.99 3.231 2.2 3.231 1.21 0 2.2-1.444 2.2-3.231 0-1.788-.99-3.214-2.2-3.214zm9.204 0c-1.21 0-2.2 1.426-2.2 3.214 0 1.787.99 3.231 2.2 3.231 1.21 0 2.2-1.444 2.2-3.231 0-1.788-.972-3.214-2.2-3.214z" fill-opacity=".7" fill="#FFF" fill-rule="nonzero"/></g></svg>