<svg width="30" height="30" xmlns="http://www.w3.org/2000/svg"><g fill="none" fill-rule="evenodd"><path d="M-9-9h48v48H-9z"/><path d="M25.329 25.329H20.98V18.52c0-1.623-.03-3.711-2.26-3.711-2.265 0-2.612 1.768-2.612 3.594v6.925h-4.347V11.33h4.173v1.913h.058c.581-1.1 2-2.26 4.117-2.26 4.405 0 5.219 2.898 5.219 6.667v7.679zM6.859 9.416a2.523 2.523 0 1 1 0-5.045 2.523 2.523 0 0 1 0 5.045zM4.682 25.33h4.351v-14h-4.35v13.999zM27.495.333H2.498C1.304.333.333 1.28.333 2.447v25.102c0 1.169.971 2.117 2.165 2.117h24.997c1.197 0 2.172-.948 2.172-2.117V2.447c0-1.167-.975-2.114-2.172-2.114z" fill-opacity=".7" fill="#FFFFFE"/></g></svg>